<svg xmlns="http://www.w3.org/2000/svg" xmlns:xlink="http://www.w3.org/1999/xlink" width="500" zoomAndPan="magnify" viewBox="0 0 375 374.999991" height="500" preserveAspectRatio="xMidYMid meet" version="1.0"><defs><clipPath id="08330f3417"><path d="M 319 0 L 375 0 L 375 65 L 319 65 Z M 319 0 " clip-rule="nonzero"/></clipPath><clipPath id="b9f8277152"><path d="M 418.03125 -118.714844 L 506.925781 -17.113281 L 378.230469 95.484375 L 289.335938 -6.113281 Z M 418.03125 -118.714844 " clip-rule="nonzero"/></clipPath><clipPath id="e033745934"><path d="M 418.027344 -118.710938 L 507.90625 -15.980469 L 378.992188 96.808594 L 289.113281 -5.917969 Z M 418.027344 -118.710938 " clip-rule="nonzero"/></clipPath><clipPath id="756eb0d2c8"><path d="M 462.464844 -67.917969 C 437.921875 -95.96875 389.167969 -93.460938 353.570312 -62.3125 C 317.972656 -31.167969 309.007812 16.820312 333.550781 44.871094 C 358.09375 72.925781 406.851562 70.414062 442.449219 39.269531 C 478.046875 8.121094 487.007812 -39.867188 462.464844 -67.917969 Z M 462.464844 -67.917969 " clip-rule="nonzero"/></clipPath><clipPath id="8bc99874ca"><path d="M 274.441406 0 L 375 0 L 375 114.898438 L 274.441406 114.898438 Z M 274.441406 0 " clip-rule="nonzero"/></clipPath><clipPath id="c8350ebaf6"><path d="M 421.03125 -178.28125 C 340.070312 -178.28125 274.441406 -112.652344 274.441406 -31.691406 C 274.441406 49.265625 340.070312 114.898438 421.03125 114.898438 C 501.992188 114.898438 567.621094 49.265625 567.621094 -31.691406 C 567.621094 -112.652344 501.992188 -178.28125 421.03125 -178.28125 Z M 421.03125 -178.28125 " clip-rule="nonzero"/></clipPath><clipPath id="506ab09a55"><path d="M 251.417969 0 L 375 0 L 375 146.585938 L 251.417969 146.585938 Z M 251.417969 0 " clip-rule="nonzero"/></clipPath><clipPath id="d142ef666b"><path d="M 398.007812 -146.59375 C 317.050781 -146.59375 251.417969 -80.964844 251.417969 -0.00390625 C 251.417969 80.953125 317.050781 146.585938 398.007812 146.585938 C 478.96875 146.585938 544.597656 80.953125 544.597656 -0.00390625 C 544.597656 -80.964844 478.96875 -146.59375 398.007812 -146.59375 Z M 398.007812 -146.59375 " clip-rule="nonzero"/></clipPath><clipPath id="49ca0f78db"><path d="M 222.113281 0 L 375 0 L 375 174.460938 L 222.113281 174.460938 Z M 222.113281 0 " clip-rule="nonzero"/></clipPath><clipPath id="8196e20eca"><path d="M 368.703125 -118.71875 C 287.742188 -118.71875 222.113281 -53.089844 222.113281 27.871094 C 222.113281 108.832031 287.742188 174.460938 368.703125 174.460938 C 449.660156 174.460938 515.292969 108.832031 515.292969 27.871094 C 515.292969 -53.089844 449.660156 -118.71875 368.703125 -118.71875 Z M 368.703125 -118.71875 " clip-rule="nonzero"/></clipPath><clipPath id="5e26458a5d"><path d="M 192.78125 0 L 375 0 L 375 203.78125 L 192.78125 203.78125 Z M 192.78125 0 " clip-rule="nonzero"/></clipPath><clipPath id="c9fda234a2"><path d="M 354.039062 -118.71875 C 264.980469 -118.71875 192.78125 -46.523438 192.78125 42.535156 C 192.78125 131.597656 264.980469 203.792969 354.039062 203.792969 C 443.097656 203.792969 515.292969 131.597656 515.292969 42.535156 C 515.292969 -46.523438 443.097656 -118.71875 354.039062 -118.71875 Z M 354.039062 -118.71875 " clip-rule="nonzero"/></clipPath><clipPath id="8761e24139"><path d="M 162.621094 0 L 375 0 L 375 230.78125 L 162.621094 230.78125 Z M 162.621094 0 " clip-rule="nonzero"/></clipPath><clipPath id="76948f76b6"><path d="M 337.496094 -118.71875 C 240.914062 -118.71875 162.621094 -40.425781 162.621094 56.152344 C 162.621094 152.734375 240.914062 231.027344 337.496094 231.027344 C 434.074219 231.027344 512.367188 152.734375 512.367188 56.152344 C 512.367188 -40.425781 434.074219 -118.71875 337.496094 -118.71875 Z M 337.496094 -118.71875 " clip-rule="nonzero"/></clipPath><clipPath id="b3c41556a8"><path d="M 129.625 0 L 375 0 L 375 256.160156 L 129.625 256.160156 Z M 129.625 0 " clip-rule="nonzero"/></clipPath><clipPath id="969f6e7f22"><path d="M 321 -126.339844 C 215.308594 -126.339844 129.625 -40.660156 129.625 65.03125 C 129.625 170.726562 215.308594 256.40625 321 256.40625 C 426.691406 256.40625 512.371094 170.726562 512.371094 65.03125 C 512.371094 -40.660156 426.691406 -126.339844 321 -126.339844 Z M 321 -126.339844 " clip-rule="nonzero"/></clipPath><clipPath id="eb5df4f11a"><path d="M 94.488281 0 L 375 0 L 375 292.71875 L 94.488281 292.71875 Z M 94.488281 0 " clip-rule="nonzero"/></clipPath><clipPath id="8d038cbbec"><path d="M 314.144531 -146.59375 C 192.832031 -146.59375 94.488281 -48.253906 94.488281 73.0625 C 94.488281 194.375 192.832031 292.71875 314.144531 292.71875 C 435.457031 292.71875 533.800781 194.375 533.800781 73.0625 C 533.800781 -48.253906 435.457031 -146.59375 314.144531 -146.59375 Z M 314.144531 -146.59375 " clip-rule="nonzero"/></clipPath><clipPath id="ab49bb3141"><path d="M 58.304688 0 L 375 0 L 375 327.972656 L 58.304688 327.972656 Z M 58.304688 0 " clip-rule="nonzero"/></clipPath><clipPath id="ac95e250ee"><path d="M 304.667969 -164.753906 C 168.605469 -164.753906 58.304688 -54.457031 58.304688 81.609375 C 58.304688 217.671875 168.605469 327.96875 304.667969 327.96875 C 440.730469 327.96875 551.03125 217.671875 551.03125 81.609375 C 551.03125 -54.457031 440.730469 -164.753906 304.667969 -164.753906 Z M 304.667969 -164.753906 " clip-rule="nonzero"/></clipPath><clipPath id="f074f837df"><path d="M 25.179688 0 L 375 0 L 375 359.367188 L 25.179688 359.367188 Z M 25.179688 0 " clip-rule="nonzero"/></clipPath><clipPath id="b4cfea1b15"><path d="M 303.171875 -196.382812 C 149.640625 -196.382812 25.179688 -71.921875 25.179688 81.609375 C 25.179688 235.140625 149.640625 359.601562 303.171875 359.601562 C 456.699219 359.601562 581.164062 235.140625 581.164062 81.609375 C 581.164062 -71.921875 456.699219 -196.382812 303.171875 -196.382812 Z M 303.171875 -196.382812 " clip-rule="nonzero"/></clipPath></defs><g clip-path="url(#08330f3417)"><g clip-path="url(#b9f8277152)"><g clip-path="url(#e033745934)"><g clip-path="url(#756eb0d2c8)"><path stroke-linecap="butt" transform="matrix(0.493859, 0.564449, -0.564449, 0.493859, 418.026049, -118.71011)" fill="none" stroke-linejoin="miter" d="M 89.984184 0.00130242 C 40.28815 0.00151211 0.0000742768 51.126157 0.00269574 114.194636 C 0.00139742 177.259686 40.28509 228.387978 89.981123 228.387768 C 139.681076 228.390988 179.968662 177.258993 179.96996 114.193944 C 179.967339 51.125464 139.680217 0.00109274 89.984184 0.00130242 Z M 89.984184 0.00130242 " stroke="#5e17eb" stroke-width="8" stroke-opacity="1" stroke-miterlimit="4"/></g></g></g></g><g clip-path="url(#8bc99874ca)"><g clip-path="url(#c8350ebaf6)"><path stroke-linecap="butt" transform="matrix(0.75, 0, 0, 0.75, 274.441335, -178.282121)" fill="none" stroke-linejoin="miter" d="M 195.453245 0.00116146 C 87.505314 0.00116146 0.0000946289 87.506381 0.0000946289 195.454312 C 0.0000946289 303.397034 87.505314 390.907462 195.453245 390.907462 C 303.401176 390.907462 390.906395 303.397034 390.906395 195.454312 C 390.906395 87.506381 303.401176 0.00116146 195.453245 0.00116146 Z M 195.453245 0.00116146 " stroke="#5e17eb" stroke-width="8" stroke-opacity="1" stroke-miterlimit="4"/></g></g><g clip-path="url(#506ab09a55)"><g clip-path="url(#d142ef666b)"><path stroke-linecap="butt" transform="matrix(0.75, 0, 0, 0.75, 251.419061, -146.595665)" fill="none" stroke-linejoin="miter" d="M 195.451694 0.00255303 C 87.508972 0.00255303 -0.00145605 87.507773 -0.00145605 195.455703 C -0.00145605 303.398426 87.508972 390.908854 195.451694 390.908854 C 303.399625 390.908854 390.904845 303.398426 390.904845 195.455703 C 390.904845 87.507773 303.399625 0.00255303 195.451694 0.00255303 Z M 195.451694 0.00255303 " stroke="#5e17eb" stroke-width="8" stroke-opacity="1" stroke-miterlimit="4"/></g></g><g clip-path="url(#49ca0f78db)"><g clip-path="url(#8196e20eca)"><path stroke-linecap="butt" transform="matrix(0.75, 0, 0, 0.75, 222.111919, -118.718817)" fill="none" stroke-linejoin="miter" d="M 195.454967 0.0000893389 C 87.507036 0.0000893389 0.00181671 87.505309 0.00181671 195.45324 C 0.00181671 303.40117 87.507036 390.90639 195.454967 390.90639 C 303.397689 390.90639 390.908117 303.40117 390.908117 195.45324 C 390.908117 87.505309 303.397689 0.0000893389 195.454967 0.0000893389 Z M 195.454967 0.0000893389 " stroke="#5e17eb" stroke-width="8" stroke-opacity="1" stroke-miterlimit="4"/></g></g><g clip-path="url(#5e26458a5d)"><g clip-path="url(#c9fda234a2)"><path stroke-linecap="butt" transform="matrix(0.75, 0, 0, 0.75, 192.782291, -118.718817)" fill="none" stroke-linejoin="miter" d="M 215.009043 0.0000893388 C 96.264243 0.0000893388 -0.00138805 96.260512 -0.00138805 215.005312 C -0.00138805 333.75532 96.264243 430.015743 215.009043 430.015743 C 333.753842 430.015743 430.014265 333.75532 430.014265 215.005312 C 430.014265 96.260512 333.753842 0.0000893388 215.009043 0.0000893388 Z M 215.009043 0.0000893388 " stroke="#5e17eb" stroke-width="8" stroke-opacity="1" stroke-miterlimit="4"/></g></g><g clip-path="url(#8761e24139)"><g clip-path="url(#76948f76b6)"><path stroke-linecap="butt" transform="matrix(0.75, 0, 0, 0.75, 162.622201, -118.718817)" fill="none" stroke-linejoin="miter" d="M 233.165206 0.0000893388 C 104.389155 0.0000893388 -0.00147636 104.390721 -0.00147636 233.161563 C -0.00147636 361.937613 104.389155 466.328245 233.165206 466.328245 C 361.936047 466.328245 466.326679 361.937613 466.326679 233.161563 C 466.326679 104.390721 361.936047 0.0000893388 233.165206 0.0000893388 Z M 233.165206 0.0000893388 " stroke="#5e17eb" stroke-width="8" stroke-opacity="1" stroke-miterlimit="4"/></g></g><g clip-path="url(#b3c41556a8)"><g clip-path="url(#969f6e7f22)"><path stroke-linecap="butt" transform="matrix(0.75, 0, 0, 0.75, 129.626394, -126.340523)" fill="none" stroke-linejoin="miter" d="M 255.164825 0.000905538 C 114.242941 0.000905538 -0.00185812 114.240496 -0.00185812 255.162381 C -0.00185812 396.089473 114.242941 510.329064 255.164825 510.329064 C 396.08671 510.329064 510.3263 396.089473 510.3263 255.162381 C 510.3263 114.240496 396.08671 0.000905538 255.164825 0.000905538 Z M 255.164825 0.000905538 " stroke="#5e17eb" stroke-width="8" stroke-opacity="1" stroke-miterlimit="4"/></g></g><g clip-path="url(#eb5df4f11a)"><g clip-path="url(#8d038cbbec)"><path stroke-linecap="butt" transform="matrix(0.75, 0, 0, 0.75, 94.489525, -146.595665)" fill="none" stroke-linejoin="miter" d="M 292.873361 0.00255303 C 131.123351 0.00255303 -0.00165793 131.122353 -0.00165793 292.877572 C -0.00165793 454.627583 131.123351 585.752591 292.873361 585.752591 C 454.623372 585.752591 585.748381 454.627583 585.748381 292.877572 C 585.748381 131.122353 454.623372 0.00255303 292.873361 0.00255303 Z M 292.873361 0.00255303 " stroke="#5e17eb" stroke-width="8" stroke-opacity="1" stroke-miterlimit="4"/></g></g><g clip-path="url(#ab49bb3141)"><g clip-path="url(#ac95e250ee)"><path stroke-linecap="butt" transform="matrix(0.75, 0, 0, 0.75, 58.305169, -164.755813)" fill="none" stroke-linejoin="miter" d="M 328.483755 0.00254257 C 147.067076 0.00254257 -0.000641562 147.065052 -0.000641562 328.486939 C -0.000641562 509.903618 147.067076 656.971336 328.483755 656.971336 C 509.900434 656.971336 656.968152 509.903618 656.968152 328.486939 C 656.968152 147.065052 509.900434 0.00254257 328.483755 0.00254257 Z M 328.483755 0.00254257 " stroke="#5e17eb" stroke-width="8" stroke-opacity="1" stroke-miterlimit="4"/></g></g><g clip-path="url(#f074f837df)"><g clip-path="url(#b4cfea1b15)"><path stroke-linecap="butt" transform="matrix(0.75, 0, 0, 0.75, 25.177951, -196.383035)" fill="none" stroke-linejoin="miter" d="M 370.658589 0.000296806 C 165.950242 0.000296806 0.00231479 165.948224 0.00231479 370.656571 C 0.00231479 575.364918 165.950242 741.312845 370.658589 741.312845 C 575.361728 741.312845 741.314863 575.364918 741.314863 370.656571 C 741.314863 165.948224 575.361728 0.000296806 370.658589 0.000296806 Z M 370.658589 0.000296806 " stroke="#5e17eb" stroke-width="8" stroke-opacity="1" stroke-miterlimit="4"/></g></g></svg>