<svg xmlns="http://www.w3.org/2000/svg" xmlns:xlink="http://www.w3.org/1999/xlink" width="500" zoomAndPan="magnify" viewBox="0 0 375 374.999991" height="500" preserveAspectRatio="xMidYMid meet" version="1.0"><defs><clipPath id="e78c398ff2"><path d="M 0 0 L 370 0 L 370 370.5 L 0 370.5 Z M 0 0 " clip-rule="nonzero"/></clipPath></defs><g clip-path="url(#e78c398ff2)"><path fill="#ffffff" d="M 358.582031 164.832031 L 351.640625 164.832031 C 350.773438 156.445312 349.039062 148.347656 346.726562 140.25 L 353.085938 137.648438 C 355.980469 136.492188 358.292969 134.179688 359.449219 131.285156 C 360.605469 128.394531 360.605469 125.214844 359.449219 122.324219 L 352.796875 106.417969 C 350.484375 100.632812 343.542969 97.742188 337.761719 100.054688 L 331.109375 102.660156 C 327.0625 95.429688 322.433594 88.488281 317.230469 81.835938 L 322.144531 76.921875 C 324.457031 74.609375 325.613281 71.714844 325.613281 68.824219 C 325.613281 65.933594 324.457031 62.75 322.144531 60.726562 L 310 48.582031 C 305.371094 43.957031 298.144531 43.957031 293.515625 48.582031 L 288.601562 53.496094 C 281.949219 48.292969 275.007812 43.664062 267.777344 39.617188 L 270.382812 33.253906 C 271.539062 30.363281 271.539062 27.183594 270.382812 24.289062 C 269.226562 21.398438 266.910156 19.085938 264.019531 17.929688 L 248.113281 11.277344 C 242.332031 8.964844 235.390625 11.566406 233.078125 17.640625 L 230.1875 24 C 222.089844 21.6875 213.992188 20.242188 205.605469 19.085938 L 205.605469 11.566406 C 205.605469 5.207031 200.402344 0 194.039062 0 L 176.6875 0 C 170.324219 0 165.121094 5.207031 165.121094 11.566406 L 165.121094 18.507812 C 156.734375 19.375 148.347656 21.109375 140.539062 23.421875 L 137.9375 17.0625 C 135.625 11.277344 128.683594 8.386719 122.902344 10.699219 L 106.128906 17.351562 C 103.238281 18.507812 100.921875 20.820312 99.765625 23.710938 C 98.609375 26.605469 98.609375 29.785156 99.765625 32.675781 L 102.371094 39.328125 C 95.140625 43.375 88.199219 48.003906 81.546875 53.207031 L 76.632812 48.292969 C 72.003906 43.664062 64.777344 43.664062 60.148438 48.292969 L 48.003906 60.4375 C 45.691406 62.75 44.535156 65.644531 44.535156 68.535156 C 44.535156 71.425781 45.691406 74.609375 48.003906 76.632812 L 52.917969 81.546875 C 47.714844 88.199219 43.085938 95.140625 39.039062 102.371094 L 32.675781 99.765625 C 26.894531 97.453125 19.953125 100.054688 17.640625 106.128906 L 10.988281 122.035156 C 9.832031 124.925781 9.832031 128.105469 10.988281 130.996094 C 12.144531 133.890625 14.457031 136.203125 17.351562 137.359375 L 23.710938 140.25 C 21.398438 148.347656 19.953125 156.445312 18.796875 164.832031 L 11.566406 164.832031 C 5.207031 164.832031 0 170.035156 0 176.398438 L 0 193.75 C 0 200.113281 5.207031 205.316406 11.566406 205.316406 L 18.507812 205.316406 C 19.375 213.703125 21.109375 221.800781 23.421875 229.898438 L 17.0625 232.5 C 14.167969 233.65625 11.855469 235.96875 10.699219 238.863281 C 9.542969 241.753906 9.542969 244.933594 10.699219 247.824219 L 17.351562 264.019531 C 19.664062 269.804688 26.605469 272.695312 32.386719 270.382812 L 39.039062 267.777344 C 43.085938 275.007812 47.714844 281.949219 52.917969 288.601562 L 48.003906 293.515625 C 43.375 298.144531 43.375 305.371094 48.003906 310 L 60.148438 322.144531 C 64.777344 326.773438 72.003906 326.773438 76.632812 322.144531 L 81.546875 317.230469 C 88.199219 322.433594 95.140625 327.0625 102.371094 331.109375 L 99.765625 337.472656 C 98.609375 340.363281 98.609375 343.542969 99.765625 346.4375 C 100.921875 349.328125 103.238281 351.640625 106.128906 352.796875 L 122.035156 359.449219 C 127.816406 361.761719 134.757812 359.160156 137.070312 353.085938 L 139.960938 346.726562 C 148.058594 349.039062 156.15625 350.484375 164.542969 351.640625 L 164.542969 358.582031 C 164.542969 364.941406 169.746094 370.148438 176.109375 370.148438 L 193.460938 370.148438 C 199.824219 370.148438 205.027344 364.941406 205.027344 358.582031 L 205.027344 351.640625 C 213.414062 350.773438 221.800781 349.039062 229.609375 346.726562 L 232.210938 353.085938 C 234.523438 358.871094 241.464844 361.761719 247.246094 359.449219 L 263.152344 352.796875 C 266.042969 351.640625 268.359375 349.328125 269.515625 346.4375 C 270.671875 343.542969 270.671875 340.363281 269.515625 337.472656 L 266.910156 330.820312 C 274.140625 326.773438 281.082031 322.144531 287.734375 316.941406 L 292.648438 321.855469 C 297.277344 326.480469 304.503906 326.480469 309.132812 321.855469 L 321.277344 309.710938 C 325.902344 305.082031 325.902344 297.855469 321.277344 293.226562 L 316.359375 288.3125 C 321.566406 281.660156 326.191406 274.71875 330.242188 267.488281 L 336.605469 270.09375 C 342.386719 272.40625 349.328125 269.804688 351.640625 263.730469 L 358.292969 247.824219 C 359.449219 244.933594 359.449219 241.753906 358.292969 238.863281 C 357.136719 235.96875 354.820312 233.65625 351.929688 232.5 L 345.566406 229.609375 C 347.882812 221.511719 349.328125 213.414062 350.484375 205.027344 L 357.425781 205.027344 C 363.785156 205.027344 368.992188 199.824219 368.992188 193.460938 L 368.992188 176.109375 C 370.148438 170.035156 364.941406 164.832031 358.582031 164.832031 Z M 358.582031 193.75 L 351.640625 193.75 C 345.859375 193.75 340.941406 198.085938 340.074219 204.160156 C 339.207031 211.96875 337.761719 219.777344 335.445312 227.003906 C 334 232.789062 336.894531 238.570312 342.097656 240.886719 L 348.460938 243.488281 L 341.808594 259.394531 L 335.445312 256.789062 C 329.953125 254.476562 323.878906 256.789062 320.988281 261.996094 C 317.230469 268.648438 312.890625 275.296875 307.976562 281.371094 C 304.214844 285.996094 304.792969 292.648438 308.84375 296.695312 L 313.757812 301.613281 L 301.613281 313.757812 L 296.695312 308.84375 C 292.648438 304.792969 285.996094 304.214844 281.371094 307.976562 C 275.296875 312.890625 268.648438 317.230469 261.996094 320.988281 C 256.789062 323.878906 254.765625 330.242188 256.789062 335.445312 L 259.394531 341.808594 L 243.488281 348.460938 L 240.886719 342.097656 C 238.570312 336.605469 232.789062 333.710938 227.003906 335.445312 C 219.488281 337.472656 211.96875 338.917969 204.160156 340.074219 C 198.375 340.652344 193.75 345.566406 193.75 351.640625 L 193.75 358.582031 L 176.398438 358.582031 L 176.398438 351.640625 C 176.398438 345.855469 172.0625 340.941406 165.988281 340.074219 C 158.179688 339.207031 150.371094 337.761719 143.144531 335.445312 C 141.988281 335.15625 141.117188 335.15625 139.960938 335.15625 C 135.335938 335.15625 130.996094 337.761719 129.261719 342.386719 L 126.660156 348.75 L 110.753906 342.097656 L 113.359375 335.734375 C 115.671875 330.242188 113.359375 324.167969 108.152344 321.277344 C 101.5 317.519531 94.851562 313.179688 88.777344 308.265625 C 84.152344 304.503906 77.5 305.082031 73.453125 309.132812 L 68.535156 314.046875 L 56.390625 301.902344 L 61.304688 296.984375 C 65.355469 292.9375 65.933594 286.285156 62.171875 281.660156 C 57.257812 275.585938 52.917969 268.9375 49.160156 262.285156 C 46.269531 257.078125 39.90625 255.054688 34.703125 257.078125 L 28.339844 259.683594 L 21.6875 243.777344 L 28.050781 241.175781 C 33.542969 238.863281 36.4375 233.078125 34.703125 227.292969 C 32.675781 219.777344 31.230469 212.257812 30.074219 204.449219 C 29.496094 198.664062 24.289062 194.039062 18.507812 194.039062 L 11.566406 194.039062 L 11.566406 176.6875 L 18.507812 176.6875 C 24.289062 176.6875 29.207031 172.351562 30.074219 166.277344 C 30.941406 158.46875 32.386719 150.660156 34.703125 143.433594 C 36.148438 137.648438 33.253906 131.867188 28.050781 129.550781 L 21.6875 126.949219 L 28.339844 111.042969 L 34.703125 113.648438 C 40.195312 115.960938 46.269531 113.648438 49.160156 108.441406 C 52.917969 101.789062 57.257812 95.140625 62.171875 89.066406 C 65.933594 84.441406 65.355469 77.789062 61.304688 73.742188 L 56.390625 68.824219 L 68.535156 56.679688 L 73.453125 61.59375 C 77.5 65.644531 84.152344 66.222656 88.777344 62.460938 C 94.851562 57.546875 101.5 53.207031 108.152344 49.449219 C 113.359375 46.558594 115.382812 40.195312 113.359375 34.992188 L 110.753906 28.628906 L 126.660156 21.976562 L 129.261719 28.339844 C 131.578125 33.832031 137.359375 36.726562 143.144531 34.992188 C 150.660156 32.964844 158.179688 31.519531 165.988281 30.363281 C 171.773438 29.785156 176.398438 24.871094 176.398438 18.796875 L 176.398438 11.566406 L 193.75 11.566406 L 193.75 18.507812 C 193.75 24.289062 198.085938 29.207031 204.160156 30.074219 C 211.96875 30.941406 219.777344 32.386719 227.003906 34.703125 C 232.789062 36.148438 238.570312 33.253906 240.886719 28.050781 L 243.488281 21.6875 L 259.394531 28.339844 L 256.789062 34.703125 C 254.476562 40.195312 256.789062 46.269531 261.996094 49.160156 C 268.648438 52.917969 275.296875 57.257812 281.371094 62.171875 C 285.996094 65.933594 292.648438 65.355469 296.695312 61.304688 L 301.613281 56.390625 L 313.757812 68.535156 L 308.84375 73.453125 C 304.792969 77.5 304.214844 84.152344 307.976562 88.777344 C 312.890625 94.851562 317.230469 101.5 320.988281 108.152344 C 323.878906 113.359375 330.242188 115.382812 335.445312 113.359375 L 341.808594 110.753906 L 348.460938 126.660156 L 342.097656 129.261719 C 336.605469 131.578125 333.710938 137.359375 335.445312 143.144531 C 337.472656 150.660156 338.917969 158.179688 340.074219 165.988281 C 340.652344 171.773438 345.859375 176.398438 351.640625 176.398438 L 358.582031 176.398438 Z M 358.582031 193.75 " fill-opacity="1" fill-rule="nonzero"/></g><path fill="#ffffff" d="M 69.113281 113.9375 C 69.980469 114.515625 71.136719 114.804688 72.292969 114.804688 C 74.03125 114.804688 76.054688 113.9375 77.210938 112.203125 C 78.945312 109.597656 78.367188 105.839844 75.765625 104.105469 C 73.164062 102.371094 69.402344 102.949219 67.667969 105.550781 C 65.644531 108.730469 66.511719 112.203125 69.113281 113.9375 Z M 69.113281 113.9375 " fill-opacity="1" fill-rule="nonzero"/><path fill="#ffffff" d="M 52.050781 156.734375 C 52.628906 156.734375 52.917969 157.023438 53.496094 157.023438 C 56.101562 157.023438 58.414062 155.289062 58.992188 152.6875 C 59.859375 149.503906 57.835938 146.324219 54.945312 145.746094 C 51.761719 144.878906 48.582031 146.902344 48.003906 149.792969 C 47.136719 152.6875 48.871094 155.867188 52.050781 156.734375 Z M 52.050781 156.734375 " fill-opacity="1" fill-rule="nonzero"/><path fill="#ffffff" d="M 58.703125 134.757812 C 59.570312 135.046875 60.148438 135.335938 61.015625 135.335938 C 63.332031 135.335938 65.355469 134.179688 66.222656 131.867188 C 67.667969 128.972656 66.222656 125.503906 63.332031 124.058594 C 60.4375 122.902344 56.96875 124.058594 55.8125 126.949219 C 54.367188 129.839844 55.8125 133.3125 58.703125 134.757812 Z M 58.703125 134.757812 " fill-opacity="1" fill-rule="nonzero"/><path fill="#ffffff" d="M 49.160156 179.578125 C 49.449219 179.578125 49.449219 179.578125 49.738281 179.578125 C 52.628906 179.578125 55.234375 177.265625 55.523438 174.375 C 55.8125 171.195312 53.496094 168.300781 50.316406 168.011719 C 47.136719 167.722656 44.246094 170.035156 43.957031 173.21875 C 43.664062 176.398438 45.980469 179.289062 49.160156 179.578125 Z M 49.160156 179.578125 " fill-opacity="1" fill-rule="nonzero"/><path fill="#ffffff" d="M 69.402344 256.5 C 66.800781 258.238281 65.933594 261.996094 67.957031 264.597656 C 69.113281 266.332031 70.847656 267.199219 72.871094 267.199219 C 74.03125 267.199219 75.1875 266.910156 76.054688 266.332031 C 78.65625 264.597656 79.523438 260.839844 77.5 258.238281 C 75.476562 255.632812 72.003906 254.765625 69.402344 256.5 Z M 69.402344 256.5 " fill-opacity="1" fill-rule="nonzero"/><path fill="#ffffff" d="M 50.027344 202.714844 C 53.207031 202.425781 55.523438 199.53125 55.234375 196.351562 C 54.945312 193.171875 52.050781 190.859375 48.871094 191.148438 C 45.691406 191.4375 43.375 194.328125 43.664062 197.507812 C 43.957031 200.402344 46.558594 202.714844 49.449219 202.714844 C 49.738281 202.714844 50.027344 202.714844 50.027344 202.714844 Z M 50.027344 202.714844 " fill-opacity="1" fill-rule="nonzero"/><path fill="#ffffff" d="M 66.511719 238.863281 C 65.066406 235.96875 61.882812 234.523438 58.992188 235.96875 C 56.101562 237.414062 54.65625 240.597656 56.101562 243.777344 C 56.96875 245.800781 59.28125 247.246094 61.304688 247.246094 C 62.171875 247.246094 63.039062 246.957031 63.621094 246.667969 C 66.511719 245.222656 67.957031 241.753906 66.511719 238.863281 Z M 66.511719 238.863281 " fill-opacity="1" fill-rule="nonzero"/><path fill="#ffffff" d="M 59.28125 218.039062 C 58.414062 214.859375 55.234375 213.125 52.339844 213.992188 C 49.160156 214.859375 47.425781 218.039062 48.292969 220.933594 C 48.871094 223.535156 51.183594 225.269531 53.789062 225.269531 C 54.367188 225.269531 54.65625 225.269531 55.234375 224.980469 C 58.125 224.402344 59.859375 221.222656 59.28125 218.039062 Z M 59.28125 218.039062 " fill-opacity="1" fill-rule="nonzero"/><path fill="#ffffff" d="M 167.433594 56.101562 C 167.722656 56.101562 168.011719 56.101562 168.300781 56.101562 C 171.484375 55.8125 173.796875 52.917969 173.21875 49.738281 C 172.929688 46.558594 169.746094 44.246094 166.855469 44.824219 C 163.675781 45.113281 161.363281 48.292969 161.941406 51.183594 C 161.941406 54.078125 164.542969 56.101562 167.433594 56.101562 Z M 167.433594 56.101562 " fill-opacity="1" fill-rule="nonzero"/><path fill="#ffffff" d="M 253.03125 74.03125 C 253.898438 74.609375 255.054688 74.898438 255.921875 74.898438 C 257.945312 74.898438 259.683594 74.03125 260.839844 72.003906 C 262.574219 69.402344 261.707031 65.644531 258.816406 63.910156 C 255.921875 62.171875 252.453125 63.039062 250.71875 65.933594 C 249.273438 68.824219 250.140625 72.292969 253.03125 74.03125 Z M 253.03125 74.03125 " fill-opacity="1" fill-rule="nonzero"/><path fill="#ffffff" d="M 233.078125 64.199219 C 233.945312 64.488281 234.523438 64.488281 235.101562 64.488281 C 237.414062 64.488281 239.441406 63.039062 240.597656 60.726562 C 241.753906 57.835938 240.308594 54.367188 237.414062 53.207031 C 234.523438 52.050781 231.054688 53.496094 229.898438 56.390625 C 228.738281 59.570312 230.1875 63.039062 233.078125 64.199219 Z M 233.078125 64.199219 " fill-opacity="1" fill-rule="nonzero"/><path fill="#ffffff" d="M 211.96875 57.835938 C 212.257812 57.835938 212.835938 57.835938 213.125 57.835938 C 215.726562 57.835938 218.328125 56.101562 218.90625 53.207031 C 219.488281 50.027344 217.460938 47.136719 214.570312 46.269531 C 211.390625 45.691406 208.207031 47.714844 207.628906 50.605469 C 207.050781 54.078125 209.074219 56.96875 211.96875 57.835938 Z M 211.96875 57.835938 " fill-opacity="1" fill-rule="nonzero"/><path fill="#ffffff" d="M 274.429688 88.488281 C 275.875 88.488281 277.609375 87.910156 278.769531 86.464844 C 280.792969 84.152344 280.792969 80.390625 278.191406 78.367188 C 275.875 76.34375 272.117188 76.632812 270.09375 78.945312 C 268.070312 81.257812 268.359375 85.019531 270.671875 87.042969 C 271.828125 87.910156 273.273438 88.488281 274.429688 88.488281 Z M 274.429688 88.488281 " fill-opacity="1" fill-rule="nonzero"/><path fill="#ffffff" d="M 123.480469 69.691406 C 124.347656 69.691406 125.214844 69.402344 126.082031 69.113281 C 128.972656 67.667969 130.128906 64.199219 128.683594 61.304688 C 127.238281 58.414062 123.769531 57.257812 120.875 58.703125 C 117.984375 60.148438 116.828125 63.621094 118.273438 66.511719 C 119.429688 68.535156 121.453125 69.691406 123.480469 69.691406 Z M 123.480469 69.691406 " fill-opacity="1" fill-rule="nonzero"/><path fill="#ffffff" d="M 144.878906 61.015625 C 145.457031 61.015625 146.035156 61.015625 146.613281 60.726562 C 149.792969 59.859375 151.53125 56.390625 150.371094 53.496094 C 149.503906 50.316406 146.324219 48.582031 143.144531 49.738281 C 140.25 50.605469 138.515625 53.789062 139.382812 56.96875 C 140.25 59.28125 142.566406 61.015625 144.878906 61.015625 Z M 144.878906 61.015625 " fill-opacity="1" fill-rule="nonzero"/><path fill="#ffffff" d="M 104.105469 81.835938 C 105.261719 81.835938 106.417969 81.546875 107.574219 80.679688 C 110.175781 78.65625 110.753906 75.1875 108.730469 72.582031 C 106.707031 69.980469 103.238281 69.402344 100.632812 71.425781 C 98.03125 73.453125 97.453125 76.921875 99.476562 79.523438 C 100.34375 80.96875 102.078125 81.835938 104.105469 81.835938 Z M 104.105469 81.835938 " fill-opacity="1" fill-rule="nonzero"/><path fill="#ffffff" d="M 82.996094 275.007812 C 80.679688 277.320312 80.679688 280.792969 82.996094 283.105469 C 84.152344 284.261719 85.597656 284.839844 87.042969 284.839844 C 88.488281 284.839844 89.933594 284.261719 91.089844 283.105469 C 93.40625 280.792969 93.40625 277.320312 91.378906 275.007812 C 89.066406 272.984375 85.308594 272.984375 82.996094 275.007812 Z M 82.996094 275.007812 " fill-opacity="1" fill-rule="nonzero"/><path fill="#ffffff" d="M 190.28125 54.945312 C 193.75 54.945312 196.0625 52.628906 196.351562 49.449219 C 196.351562 46.269531 194.039062 43.664062 190.859375 43.375 C 187.675781 43.085938 185.074219 45.691406 184.785156 48.871094 C 184.496094 52.339844 187.097656 54.945312 190.28125 54.945312 Z M 190.28125 54.945312 " fill-opacity="1" fill-rule="nonzero"/><path fill="#ffffff" d="M 86.753906 97.164062 C 88.199219 97.164062 89.644531 96.585938 90.800781 95.429688 C 93.117188 93.117188 92.828125 89.355469 90.511719 87.332031 C 88.199219 85.019531 84.441406 85.308594 82.414062 87.621094 C 80.101562 89.933594 80.390625 93.695312 82.703125 95.71875 C 83.863281 96.585938 85.308594 97.164062 86.753906 97.164062 Z M 86.753906 97.164062 " fill-opacity="1" fill-rule="nonzero"/><path fill="#ffffff" d="M 313.179688 162.519531 C 313.757812 165.410156 316.070312 167.433594 318.964844 167.433594 C 319.253906 167.433594 319.542969 167.433594 319.832031 167.433594 C 323.011719 166.855469 325.035156 163.964844 324.457031 160.785156 C 323.878906 157.601562 320.988281 155.578125 317.808594 156.15625 C 314.914062 156.445312 312.601562 159.335938 313.179688 162.519531 Z M 313.179688 162.519531 " fill-opacity="1" fill-rule="nonzero"/><path fill="#ffffff" d="M 307.6875 141.117188 C 308.554688 143.433594 310.867188 144.878906 313.179688 144.878906 C 313.757812 144.878906 314.625 144.878906 315.203125 144.589844 C 318.097656 143.433594 319.832031 140.25 318.675781 137.070312 C 317.519531 134.179688 314.335938 132.445312 311.15625 133.601562 C 307.976562 135.046875 306.527344 138.226562 307.6875 141.117188 Z M 307.6875 141.117188 " fill-opacity="1" fill-rule="nonzero"/><path fill="#ffffff" d="M 290.625 104.972656 C 291.78125 104.972656 293.226562 104.683594 294.382812 103.816406 C 296.984375 101.789062 297.277344 98.03125 295.25 95.71875 C 293.226562 93.117188 289.46875 92.828125 287.152344 94.851562 C 284.550781 96.875 284.261719 100.632812 286.285156 102.949219 C 287.152344 104.394531 288.890625 104.972656 290.625 104.972656 Z M 290.625 104.972656 " fill-opacity="1" fill-rule="nonzero"/><path fill="#ffffff" d="M 294.382812 266.042969 C 291.78125 264.019531 288.3125 264.308594 286.285156 266.910156 C 284.261719 269.515625 284.550781 272.984375 287.152344 275.007812 C 288.3125 275.875 289.46875 276.164062 290.914062 276.164062 C 292.648438 276.164062 294.382812 275.296875 295.539062 274.140625 C 297.277344 271.539062 296.984375 267.777344 294.382812 266.042969 Z M 294.382812 266.042969 " fill-opacity="1" fill-rule="nonzero"/><path fill="#ffffff" d="M 303.636719 124.058594 C 304.503906 124.058594 305.660156 123.769531 306.527344 123.191406 C 309.421875 121.453125 310.289062 117.984375 308.84375 115.382812 C 307.398438 112.492188 303.636719 111.621094 301.035156 113.070312 C 298.144531 114.804688 297.277344 118.273438 298.722656 120.875 C 299.589844 123.191406 301.613281 124.058594 303.636719 124.058594 Z M 303.636719 124.058594 " fill-opacity="1" fill-rule="nonzero"/><path fill="#ffffff" d="M 320.121094 202.425781 C 316.941406 201.847656 314.046875 203.871094 313.46875 207.050781 C 312.890625 210.234375 315.203125 213.125 318.097656 213.703125 C 318.386719 213.703125 318.675781 213.703125 318.964844 213.703125 C 321.855469 213.703125 324.167969 211.679688 324.746094 208.785156 C 325.324219 205.894531 323.300781 202.714844 320.121094 202.425781 Z M 320.121094 202.425781 " fill-opacity="1" fill-rule="nonzero"/><path fill="#ffffff" d="M 320.988281 178.710938 C 317.808594 178.710938 315.203125 181.316406 315.203125 184.496094 C 315.203125 184.496094 315.203125 184.785156 315.203125 184.785156 C 315.203125 184.785156 315.203125 185.074219 315.203125 185.074219 C 315.203125 188.253906 317.808594 190.859375 320.988281 190.859375 C 324.167969 190.859375 326.773438 188.253906 326.773438 185.074219 C 326.773438 185.074219 326.773438 184.785156 326.773438 184.785156 C 326.773438 184.785156 326.773438 184.496094 326.773438 184.496094 C 326.773438 181.316406 324.167969 178.710938 320.988281 178.710938 Z M 320.988281 178.710938 " fill-opacity="1" fill-rule="nonzero"/><path fill="#ffffff" d="M 306.527344 246.378906 C 303.636719 244.933594 300.167969 245.800781 298.722656 248.695312 C 297.277344 251.585938 298.144531 255.054688 301.035156 256.5 C 301.902344 257.078125 302.769531 257.367188 303.925781 257.367188 C 305.949219 257.367188 307.976562 256.210938 309.132812 254.476562 C 310.289062 251.296875 309.421875 247.824219 306.527344 246.378906 Z M 306.527344 246.378906 " fill-opacity="1" fill-rule="nonzero"/><path fill="#ffffff" d="M 315.203125 224.980469 C 312.3125 223.824219 308.84375 225.558594 307.976562 228.449219 C 306.816406 231.34375 308.554688 234.8125 311.445312 235.96875 C 312.023438 236.257812 312.601562 236.257812 313.46875 236.257812 C 315.78125 236.257812 318.097656 234.8125 318.964844 232.5 C 319.832031 229.320312 318.097656 225.847656 315.203125 224.980469 Z M 315.203125 224.980469 " fill-opacity="1" fill-rule="nonzero"/><path fill="#ffffff" d="M 126.660156 301.324219 C 123.769531 299.878906 120.296875 301.035156 118.851562 303.925781 C 117.40625 306.816406 118.5625 310.289062 121.453125 311.734375 C 122.324219 312.023438 123.191406 312.3125 124.058594 312.3125 C 126.082031 312.3125 128.105469 311.15625 129.261719 309.132812 C 130.707031 306.238281 129.550781 302.769531 126.660156 301.324219 Z M 126.660156 301.324219 " fill-opacity="1" fill-rule="nonzero"/><path fill="#ffffff" d="M 168.589844 314.046875 C 165.410156 313.757812 162.519531 315.78125 162.230469 318.964844 C 161.941406 322.144531 163.964844 325.035156 167.144531 325.324219 C 167.433594 325.324219 167.722656 325.324219 168.011719 325.324219 C 170.90625 325.324219 173.21875 323.300781 173.796875 320.121094 C 174.085938 317.519531 171.773438 314.625 168.589844 314.046875 Z M 168.589844 314.046875 " fill-opacity="1" fill-rule="nonzero"/><path fill="#ffffff" d="M 147.191406 309.710938 C 144.011719 308.84375 140.828125 310.578125 139.960938 313.46875 C 139.09375 316.652344 140.828125 319.832031 143.722656 320.699219 C 144.300781 320.988281 144.878906 320.988281 145.457031 320.988281 C 148.058594 320.988281 150.082031 319.542969 150.949219 316.941406 C 151.820312 313.757812 150.082031 310.578125 147.191406 309.710938 Z M 147.191406 309.710938 " fill-opacity="1" fill-rule="nonzero"/><path fill="#ffffff" d="M 190.859375 315.203125 C 187.675781 315.203125 185.074219 318.097656 185.363281 321.277344 C 185.363281 324.457031 187.964844 326.773438 191.148438 326.773438 C 191.148438 326.773438 191.4375 326.773438 191.4375 326.773438 C 194.617188 326.773438 197.21875 323.878906 196.929688 320.699219 C 196.640625 317.519531 194.039062 314.914062 190.859375 315.203125 Z M 190.859375 315.203125 " fill-opacity="1" fill-rule="nonzero"/><path fill="#ffffff" d="M 107.863281 289.757812 C 105.261719 288.023438 101.789062 288.3125 99.765625 290.914062 C 97.742188 293.515625 98.320312 296.984375 100.921875 299.011719 C 101.789062 299.878906 103.238281 300.167969 104.394531 300.167969 C 106.128906 300.167969 107.863281 299.300781 109.019531 297.855469 C 111.042969 295.25 110.464844 291.78125 107.863281 289.757812 Z M 107.863281 289.757812 " fill-opacity="1" fill-rule="nonzero"/><path fill="#ffffff" d="M 233.65625 305.949219 C 230.765625 307.109375 229.320312 310.578125 230.476562 313.46875 C 231.34375 315.78125 233.65625 317.230469 235.679688 317.230469 C 236.546875 317.230469 237.125 317.230469 237.992188 316.941406 C 240.886719 315.78125 242.332031 312.3125 241.175781 309.421875 C 240.019531 305.949219 236.546875 304.503906 233.65625 305.949219 Z M 233.65625 305.949219 " fill-opacity="1" fill-rule="nonzero"/><path fill="#ffffff" d="M 253.320312 295.828125 C 250.71875 297.566406 249.851562 301.035156 251.296875 303.925781 C 252.453125 305.660156 254.1875 306.527344 256.210938 306.527344 C 257.367188 306.527344 258.238281 306.238281 259.105469 305.660156 C 261.707031 303.925781 262.574219 300.457031 261.128906 297.566406 C 259.683594 294.671875 256.210938 294.09375 253.320312 295.828125 Z M 253.320312 295.828125 " fill-opacity="1" fill-rule="nonzero"/><path fill="#ffffff" d="M 270.960938 282.816406 C 268.648438 284.839844 268.359375 288.601562 270.382812 290.914062 C 271.539062 292.359375 273.273438 292.9375 274.71875 292.9375 C 276.164062 292.9375 277.320312 292.359375 278.480469 291.492188 C 280.792969 289.46875 281.082031 285.707031 279.058594 283.394531 C 277.03125 280.792969 273.5625 280.503906 270.960938 282.816406 Z M 270.960938 282.816406 " fill-opacity="1" fill-rule="nonzero"/><path fill="#ffffff" d="M 212.546875 312.3125 C 209.363281 312.890625 207.339844 316.070312 208.207031 319.253906 C 208.785156 321.855469 211.101562 323.878906 213.703125 323.878906 C 213.992188 323.878906 214.570312 323.878906 214.859375 323.878906 C 218.039062 323.300781 220.066406 320.121094 219.199219 316.941406 C 218.90625 313.46875 215.726562 311.734375 212.546875 312.3125 Z M 212.546875 312.3125 " fill-opacity="1" fill-rule="nonzero"/><path fill="#ffffff" d="M 275.875 112.203125 C 272.695312 111.332031 269.515625 112.203125 267.199219 114.515625 L 242.621094 139.09375 L 231.054688 127.527344 L 255.632812 102.949219 C 257.945312 100.632812 258.816406 97.164062 257.945312 94.273438 C 257.078125 91.378906 255.054688 89.066406 251.875 88.199219 C 234.234375 82.996094 214.570312 89.066406 201.558594 103.238281 C 189.410156 116.539062 185.363281 135.046875 190.859375 151.242188 L 151.242188 190.859375 C 134.179688 185.363281 114.515625 189.988281 101.210938 203.582031 C 88.199219 216.59375 83.285156 235.101562 87.910156 251.875 C 88.777344 254.765625 91.089844 257.078125 94.273438 257.945312 C 97.453125 258.816406 100.632812 257.945312 102.949219 255.632812 L 127.527344 231.054688 L 139.09375 242.621094 L 114.515625 267.199219 C 112.203125 269.515625 111.332031 272.984375 112.203125 275.875 C 113.070312 278.769531 115.09375 281.082031 118.273438 281.949219 C 122.324219 283.105469 126.660156 283.683594 130.996094 283.683594 C 144.878906 283.683594 158.757812 277.609375 168.589844 266.910156 C 180.738281 253.609375 184.785156 235.101562 179.289062 218.90625 L 218.90625 179.289062 C 235.96875 184.785156 255.632812 180.15625 268.9375 166.566406 C 281.949219 153.554688 286.863281 135.046875 282.238281 118.273438 C 281.371094 115.09375 279.058594 112.78125 275.875 112.203125 Z M 260.839844 158.46875 C 249.851562 169.457031 233.367188 173.21875 219.777344 167.144531 C 217.460938 166.277344 215.148438 166.566406 213.414062 168.300781 L 168.300781 213.414062 C 166.566406 215.148438 166.277344 217.75 167.144531 219.777344 C 172.640625 232.5 169.746094 248.402344 159.914062 259.394531 C 151.242188 269.226562 138.226562 273.851562 126.082031 272.117188 L 148.925781 249.273438 C 152.398438 245.800781 152.6875 240.019531 149.214844 236.546875 L 133.890625 221.222656 C 132.15625 219.488281 130.128906 218.617188 127.527344 218.617188 C 125.214844 218.617188 122.613281 219.488281 120.875 221.222656 L 98.03125 244.066406 C 96.296875 232.5 100.34375 220.644531 109.308594 211.679688 C 120.296875 200.691406 136.78125 196.929688 150.371094 203.003906 C 152.6875 203.871094 155 203.582031 156.734375 201.847656 L 201.847656 156.734375 C 203.582031 155 203.871094 152.398438 203.003906 150.371094 C 197.507812 137.648438 200.402344 121.742188 210.234375 110.753906 C 218.90625 100.921875 231.921875 96.296875 244.066406 98.03125 L 221.222656 120.875 C 219.488281 122.613281 218.617188 124.636719 218.617188 126.949219 C 218.617188 129.261719 219.488281 131.867188 221.222656 133.601562 L 236.546875 148.925781 C 238.28125 150.660156 240.308594 151.53125 242.910156 151.53125 C 245.222656 151.53125 247.824219 150.660156 249.5625 148.925781 L 272.40625 126.082031 C 273.851562 137.648438 269.515625 149.503906 260.839844 158.46875 Z M 260.839844 158.46875 " fill-opacity="1" fill-rule="nonzero"/><path fill="#ffffff" d="M 114.910156 258.039062 C 116.429688 262.214844 114.277344 266.832031 110.109375 268.351562 C 105.941406 269.871094 101.332031 267.71875 99.816406 263.542969 C 98.300781 259.367188 100.449219 254.75 104.617188 253.230469 C 108.785156 251.710938 113.394531 253.863281 114.910156 258.039062 Z M 114.910156 258.039062 " fill-opacity="1" fill-rule="nonzero"/><path fill="#ffffff" d="M 127.164062 113.75 C 127.164062 114.214844 127.121094 114.671875 127.027344 115.125 C 126.9375 115.582031 126.804688 116.023438 126.628906 116.453125 C 126.449219 116.878906 126.230469 117.285156 125.972656 117.671875 C 125.71875 118.058594 125.425781 118.414062 125.097656 118.742188 C 124.769531 119.070312 124.410156 119.363281 124.027344 119.621094 C 123.640625 119.878906 123.234375 120.09375 122.804688 120.273438 C 122.378906 120.449219 121.9375 120.582031 121.480469 120.675781 C 121.027344 120.765625 120.566406 120.808594 120.105469 120.808594 C 119.640625 120.808594 119.179688 120.765625 118.726562 120.675781 C 118.273438 120.582031 117.832031 120.449219 117.402344 120.273438 C 116.972656 120.09375 116.566406 119.878906 116.179688 119.621094 C 115.796875 119.363281 115.4375 119.070312 115.113281 118.742188 C 114.785156 118.414062 114.492188 118.058594 114.234375 117.671875 C 113.976562 117.285156 113.757812 116.878906 113.582031 116.453125 C 113.402344 116.023438 113.269531 115.582031 113.179688 115.125 C 113.089844 114.671875 113.042969 114.214844 113.042969 113.75 C 113.042969 113.285156 113.089844 112.828125 113.179688 112.371094 C 113.269531 111.917969 113.402344 111.476562 113.582031 111.046875 C 113.757812 110.617188 113.976562 110.210938 114.234375 109.828125 C 114.492188 109.441406 114.785156 109.085938 115.113281 108.757812 C 115.4375 108.429688 115.796875 108.136719 116.179688 107.878906 C 116.566406 107.621094 116.972656 107.402344 117.402344 107.226562 C 117.832031 107.050781 118.273438 106.914062 118.726562 106.824219 C 119.179688 106.734375 119.640625 106.6875 120.105469 106.6875 C 120.566406 106.6875 121.027344 106.734375 121.480469 106.824219 C 121.9375 106.914062 122.378906 107.050781 122.804688 107.226562 C 123.234375 107.402344 123.640625 107.621094 124.027344 107.878906 C 124.410156 108.136719 124.769531 108.429688 125.097656 108.757812 C 125.425781 109.085938 125.71875 109.441406 125.972656 109.828125 C 126.230469 110.210938 126.449219 110.617188 126.628906 111.046875 C 126.804688 111.476562 126.9375 111.917969 127.027344 112.371094 C 127.121094 112.828125 127.164062 113.285156 127.164062 113.75 Z M 127.164062 113.75 " fill-opacity="1" fill-rule="nonzero"/><path fill="#ffffff" d="M 260.953125 169.757812 C 284.242188 160.929688 296.234375 134.890625 287.699219 111.40625 C 279.863281 88.367188 252.535156 75.386719 229.742188 83.875 L 212.714844 37.023438 C 208.417969 24.382812 193.351562 17.347656 180.902344 22.179688 C 169.050781 26.5 162.480469 38.980469 165.203125 50.984375 C 156.582031 66.011719 146.109375 79.921875 134.042969 92.347656 C 131.929688 94.523438 131.980469 98 134.15625 100.113281 C 136.332031 102.222656 139.808594 102.175781 141.921875 99.996094 C 152.449219 89.15625 161.824219 77.246094 169.890625 64.484375 L 227.554688 223.160156 C 186.804688 210.203125 142.480469 209.480469 101.332031 221.246094 L 74.421875 147.195312 C 84.03125 142.898438 93.394531 137.878906 102.277344 132.242188 C 104.835938 130.617188 105.59375 127.226562 103.96875 124.664062 C 102.34375 122.105469 98.949219 121.347656 96.390625 122.972656 C 78.441406 135.769531 42.335938 147.542969 21.539062 155.160156 C 10.570312 159.15625 4.894531 171.339844 8.882812 182.3125 L 28.574219 236.507812 C 32.238281 247.292969 45.121094 253.300781 55.734375 249.175781 L 68.84375 244.398438 L 102.941406 338.230469 C 106.15625 347.734375 117.71875 352.796875 126.878906 348.699219 L 150.320312 338.835938 C 159.199219 335.101562 163.574219 325.078125 160.28125 316.023438 L 127.773438 226.574219 C 162.816406 220.878906 199.199219 224.246094 232.621094 236.5 C 237.957031 247.386719 251.824219 252.84375 263.164062 248.449219 C 276.015625 243.765625 282.664062 229.496094 277.992188 216.636719 Z M 51.972656 238.859375 C 46.855469 240.847656 40.664062 237.949219 38.898438 232.757812 L 35.636719 223.78125 L 56.3125 216.242188 C 59.164062 215.207031 60.628906 212.054688 59.589844 209.203125 C 58.550781 206.355469 55.402344 204.886719 52.550781 205.925781 L 31.886719 213.460938 L 26.21875 197.863281 L 46.894531 190.328125 C 49.746094 189.289062 51.210938 186.136719 50.171875 183.289062 C 49.132812 180.441406 45.984375 178.972656 43.132812 180.011719 L 22.46875 187.542969 L 19.203125 178.566406 C 17.28125 173.273438 20.015625 167.402344 25.300781 165.476562 L 64.222656 151.289062 L 90.890625 224.671875 Z M 135.015625 278.65625 L 97.898438 292.1875 L 79.164062 240.636719 L 99.609375 233.183594 C 105.273438 231.480469 111.078125 229.898438 116.847656 228.660156 Z M 259.40625 238.136719 C 252.464844 240.828125 244.070312 236.902344 241.675781 229.859375 L 176.402344 50.242188 C 173.792969 43.066406 177.503906 35.109375 184.667969 32.496094 C 191.605469 29.804688 200 33.730469 202.394531 40.773438 L 267.667969 220.390625 C 270.277344 227.5625 266.570312 235.523438 259.40625 238.136719 Z M 259.40625 238.136719 " fill-opacity="1" fill-rule="nonzero"/><path fill="#ffffff" d="M 301.800781 69.003906 C 297.101562 69.171875 294.417969 62.898438 297.914062 59.636719 L 326.226562 31.277344 C 328.371094 29.128906 331.847656 29.125 333.996094 31.269531 C 336.140625 33.410156 336.144531 36.886719 334 39.035156 L 305.6875 67.394531 C 304.613281 68.46875 303.207031 69.003906 301.800781 69.003906 Z M 301.800781 69.003906 " fill-opacity="1" fill-rule="nonzero"/><path fill="#ffffff" d="M 369.261719 148.359375 C 369.101562 148.359375 328.886719 144.839844 328.886719 144.839844 C 325.867188 144.578125 323.632812 141.914062 323.894531 138.890625 C 324.160156 135.871094 326.824219 133.632812 329.847656 133.902344 L 369.738281 137.398438 C 372.757812 137.664062 374.992188 140.324219 374.726562 143.347656 C 374.476562 146.203125 372.078125 148.359375 369.261719 148.359375 Z M 369.261719 148.359375 " fill-opacity="1" fill-rule="nonzero"/><path fill="#ffffff" d="M 320.289062 105.21875 C 314.378906 105.421875 312.691406 96.457031 318.410156 94.570312 L 356.035156 80.851562 C 358.886719 79.8125 362.039062 81.28125 363.078125 84.128906 C 364.117188 86.976562 362.648438 90.128906 359.796875 91.167969 L 322.171875 104.886719 C 321.550781 105.113281 320.914062 105.21875 320.289062 105.21875 Z M 320.289062 105.21875 " fill-opacity="1" fill-rule="nonzero"/></svg>