<svg xmlns="http://www.w3.org/2000/svg" xmlns:xlink="http://www.w3.org/1999/xlink" width="500" zoomAndPan="magnify" viewBox="0 0 375 374.999991" height="500" preserveAspectRatio="xMidYMid meet" version="1.0"><defs><clipPath id="bab3c95058"><path d="M 1 248 L 80 248 L 80 316.078125 L 1 316.078125 Z M 1 248 " clip-rule="nonzero"/></clipPath></defs><path fill="#ffffff" d="M 362.335938 186.761719 L 123.816406 186.761719 C 119.472656 186.761719 115.953125 190.28125 115.953125 194.617188 C 115.953125 198.960938 119.472656 202.476562 123.816406 202.476562 L 362.335938 202.476562 C 366.679688 202.476562 370.199219 198.957031 370.199219 194.617188 C 370.199219 190.277344 366.679688 186.761719 362.335938 186.761719 Z M 362.335938 186.761719 " fill-opacity="1" fill-rule="nonzero"/><path fill="#ffffff" d="M 362.335938 207.027344 L 123.816406 207.027344 C 116.96875 207.027344 111.398438 201.460938 111.398438 194.617188 C 111.398438 187.777344 116.96875 182.210938 123.816406 182.210938 L 362.335938 182.210938 C 369.183594 182.210938 374.753906 187.777344 374.753906 194.617188 C 374.753906 201.460938 369.183594 207.027344 362.335938 207.027344 Z M 123.816406 191.3125 C 121.992188 191.3125 120.507812 192.796875 120.507812 194.621094 C 120.507812 196.445312 121.992188 197.925781 123.816406 197.925781 L 362.335938 197.925781 C 364.160156 197.925781 365.644531 196.445312 365.644531 194.621094 C 365.644531 192.796875 364.160156 191.3125 362.335938 191.3125 Z M 123.816406 191.3125 " fill-opacity="1" fill-rule="nonzero"/><path fill="#ffffff" d="M 72.121094 160.945312 C 68.75 158.203125 63.796875 158.710938 61.054688 162.078125 L 32.023438 197.71875 L 19.339844 185.046875 C 16.265625 181.976562 11.289062 181.976562 8.21875 185.046875 C 5.148438 188.113281 5.148438 193.089844 8.21875 196.15625 L 26.9375 214.859375 C 27.519531 215.445312 28.191406 215.878906 28.886719 216.242188 C 28.992188 216.300781 29.09375 216.355469 29.199219 216.40625 C 29.441406 216.519531 29.6875 216.617188 29.9375 216.703125 C 30.285156 216.832031 30.636719 216.941406 30.996094 217.019531 C 30.996094 217.019531 30.996094 217.019531 31 217.019531 C 33.804688 217.628906 36.835938 216.710938 38.773438 214.335938 L 73.257812 172 C 75.996094 168.632812 75.488281 163.683594 72.121094 160.945312 Z M 72.121094 160.945312 " fill-opacity="1" fill-rule="nonzero"/><path fill="#ffffff" d="M 32.722656 221.753906 C 31.828125 221.753906 30.925781 221.660156 30.027344 221.464844 C 29.464844 221.339844 28.898438 221.175781 28.34375 220.964844 C 28.070312 220.875 27.683594 220.722656 27.292969 220.542969 L 26.6875 220.226562 C 25.574219 219.652344 24.570312 218.929688 23.714844 218.078125 L 4.996094 199.378906 C 0.15625 194.539062 0.15625 186.664062 4.996094 181.828125 C 9.835938 176.992188 17.71875 176.988281 22.558594 181.828125 L 31.675781 190.9375 L 57.523438 159.207031 C 59.617188 156.632812 62.585938 155.03125 65.886719 154.691406 C 69.1875 154.355469 72.421875 155.320312 74.996094 157.414062 C 80.304688 161.730469 81.109375 169.5625 76.789062 174.867188 L 42.300781 217.203125 C 39.917969 220.128906 36.40625 221.753906 32.722656 221.753906 Z M 31.242188 212.339844 C 31.25 212.339844 31.324219 212.367188 31.398438 212.394531 C 31.671875 212.496094 31.816406 212.539062 31.960938 212.570312 C 33.207031 212.839844 34.457031 212.417969 35.238281 211.460938 L 69.722656 169.128906 C 70.871094 167.714844 70.660156 165.625 69.242188 164.476562 C 68.558594 163.917969 67.699219 163.660156 66.816406 163.75 C 65.9375 163.84375 65.144531 164.269531 64.585938 164.953125 L 32.367188 204.507812 L 16.117188 188.265625 C 14.863281 187.019531 12.683594 187.019531 11.4375 188.265625 C 10.144531 189.554688 10.148438 191.65625 11.4375 192.945312 L 30.152344 211.648438 C 30.339844 211.832031 30.613281 212.019531 30.984375 212.210938 L 31.25 212.351562 C 31.242188 212.339844 31.238281 212.339844 31.242188 212.339844 Z M 31.242188 212.339844 " fill-opacity="1" fill-rule="nonzero"/><path fill="#ffffff" d="M 123.761719 108.171875 L 362.277344 108.171875 C 366.621094 108.171875 370.144531 104.652344 370.144531 100.316406 C 370.144531 95.976562 366.621094 92.457031 362.277344 92.457031 L 123.761719 92.457031 C 119.417969 92.457031 115.898438 95.976562 115.898438 100.316406 C 115.898438 104.652344 119.417969 108.171875 123.761719 108.171875 Z M 123.761719 108.171875 " fill-opacity="1" fill-rule="nonzero"/><path fill="#ffffff" d="M 362.28125 112.722656 L 123.761719 112.722656 C 116.914062 112.722656 111.34375 107.15625 111.34375 100.3125 C 111.34375 93.46875 116.914062 87.90625 123.761719 87.90625 L 362.28125 87.90625 C 369.128906 87.90625 374.699219 93.472656 374.699219 100.3125 C 374.699219 107.15625 369.128906 112.722656 362.28125 112.722656 Z M 123.761719 97.007812 C 121.9375 97.007812 120.453125 98.492188 120.453125 100.316406 C 120.453125 102.136719 121.9375 103.621094 123.761719 103.621094 L 362.28125 103.621094 C 364.105469 103.621094 365.589844 102.140625 365.589844 100.316406 C 365.589844 98.492188 364.105469 97.007812 362.28125 97.007812 Z M 123.761719 97.007812 " fill-opacity="1" fill-rule="nonzero"/><path fill="#ffffff" d="M 26.878906 120.554688 C 27.464844 121.140625 28.132812 121.578125 28.828125 121.9375 C 28.933594 121.996094 29.035156 122.050781 29.140625 122.101562 C 29.382812 122.214844 29.628906 122.3125 29.878906 122.398438 C 30.226562 122.527344 30.578125 122.636719 30.933594 122.714844 L 30.9375 122.714844 C 33.742188 123.324219 36.773438 122.40625 38.710938 120.03125 L 73.195312 77.695312 C 75.9375 74.332031 75.429688 69.382812 72.0625 66.640625 C 68.691406 63.902344 63.738281 64.410156 61 67.773438 L 31.964844 103.414062 L 19.28125 90.742188 C 16.210938 87.671875 11.230469 87.671875 8.160156 90.742188 C 5.089844 93.808594 5.089844 98.785156 8.160156 101.855469 Z M 26.878906 120.554688 " fill-opacity="1" fill-rule="nonzero"/><path fill="#ffffff" d="M 32.667969 127.453125 C 31.773438 127.453125 30.871094 127.355469 29.972656 127.160156 C 29.40625 127.035156 28.839844 126.871094 28.285156 126.664062 C 28.003906 126.566406 27.617188 126.414062 27.230469 126.234375 C 26.949219 126.097656 26.796875 126.015625 26.644531 125.933594 C 25.511719 125.347656 24.511719 124.625 23.65625 123.769531 L 4.941406 105.070312 C 0.0976562 100.234375 0.0976562 92.359375 4.941406 87.523438 C 9.78125 82.6875 17.664062 82.6875 22.503906 87.523438 L 31.617188 96.632812 L 57.464844 64.902344 C 61.789062 59.597656 69.628906 58.792969 74.9375 63.109375 C 80.25 67.429688 81.054688 75.261719 76.730469 80.566406 L 42.246094 122.902344 C 39.867188 125.824219 36.351562 127.453125 32.667969 127.453125 Z M 31.175781 118.03125 C 31.179688 118.03125 31.269531 118.066406 31.359375 118.09375 C 31.617188 118.1875 31.761719 118.234375 31.90625 118.265625 C 33.148438 118.535156 34.402344 118.109375 35.179688 117.15625 L 69.667969 74.820312 C 70.816406 73.40625 70.605469 71.320312 69.1875 70.167969 C 68.503906 69.609375 67.628906 69.351562 66.761719 69.445312 C 65.882812 69.535156 65.089844 69.960938 64.535156 70.648438 L 32.3125 110.199219 L 16.0625 93.960938 C 14.8125 92.710938 12.632812 92.710938 11.382812 93.960938 C 10.089844 95.25 10.089844 97.34375 11.382812 98.636719 L 30.101562 117.339844 C 30.285156 117.523438 30.554688 117.707031 30.929688 117.902344 L 31.175781 118.035156 C 31.175781 118.03125 31.171875 118.03125 31.175781 118.03125 Z M 31.175781 118.03125 " fill-opacity="1" fill-rule="nonzero"/><path fill="#ffffff" d="M 362.277344 281.066406 L 123.761719 281.066406 C 119.417969 281.066406 115.898438 284.585938 115.898438 288.925781 C 115.898438 293.265625 119.417969 296.78125 123.761719 296.78125 L 362.277344 296.78125 C 366.621094 296.78125 370.144531 293.261719 370.144531 288.925781 C 370.144531 284.585938 366.621094 281.066406 362.277344 281.066406 Z M 362.277344 281.066406 " fill-opacity="1" fill-rule="nonzero"/><path fill="#ffffff" d="M 362.28125 301.332031 L 123.761719 301.332031 C 116.914062 301.332031 111.34375 295.761719 111.34375 288.921875 C 111.34375 282.082031 116.914062 276.511719 123.761719 276.511719 L 362.28125 276.511719 C 369.128906 276.511719 374.699219 282.082031 374.699219 288.921875 C 374.699219 295.765625 369.128906 301.332031 362.28125 301.332031 Z M 123.761719 285.617188 C 121.9375 285.617188 120.453125 287.101562 120.453125 288.925781 C 120.453125 290.746094 121.9375 292.230469 123.761719 292.230469 L 362.28125 292.230469 C 364.105469 292.230469 365.589844 290.746094 365.589844 288.925781 C 365.589844 287.101562 364.105469 285.617188 362.28125 285.617188 Z M 123.761719 285.617188 " fill-opacity="1" fill-rule="nonzero"/><path fill="#ffffff" d="M 72.0625 255.246094 C 68.695312 252.507812 63.742188 253.015625 61 256.382812 L 31.964844 292.023438 L 19.28125 279.351562 C 16.210938 276.285156 11.230469 276.285156 8.160156 279.351562 C 5.089844 282.421875 5.089844 287.394531 8.160156 290.464844 L 26.878906 309.164062 C 27.464844 309.75 28.132812 310.1875 28.832031 310.546875 C 28.933594 310.605469 29.035156 310.660156 29.140625 310.714844 C 29.386719 310.824219 29.628906 310.925781 29.882812 311.011719 C 30.230469 311.140625 30.578125 311.246094 30.9375 311.324219 L 30.941406 311.324219 C 33.746094 311.933594 36.777344 311.015625 38.714844 308.640625 L 73.199219 266.304688 C 75.941406 262.9375 75.433594 257.988281 72.0625 255.246094 Z M 72.0625 255.246094 " fill-opacity="1" fill-rule="nonzero"/><g clip-path="url(#bab3c95058)"><path fill="#ffffff" d="M 32.667969 316.058594 C 31.773438 316.058594 30.871094 315.964844 29.972656 315.769531 C 29.386719 315.640625 28.832031 315.476562 28.285156 315.269531 C 28.011719 315.179688 27.621094 315.023438 27.230469 314.84375 L 26.628906 314.53125 C 25.515625 313.957031 24.511719 313.234375 23.65625 312.378906 L 4.941406 293.679688 C 0.0976562 288.84375 0.0976562 280.972656 4.941406 276.132812 C 9.78125 271.292969 17.664062 271.292969 22.503906 276.132812 L 31.617188 285.238281 L 57.464844 253.507812 C 61.792969 248.203125 69.628906 247.402344 74.9375 251.714844 L 74.9375 251.71875 C 80.25 256.035156 81.054688 263.867188 76.730469 269.175781 L 42.246094 311.511719 C 39.863281 314.433594 36.351562 316.058594 32.667969 316.058594 Z M 31.1875 306.644531 C 31.195312 306.644531 31.269531 306.671875 31.347656 306.703125 C 31.617188 306.796875 31.761719 306.84375 31.90625 306.875 C 33.152344 307.140625 34.402344 306.71875 35.179688 305.765625 L 69.664062 263.429688 C 70.816406 262.015625 70.601562 259.929688 69.1875 258.78125 C 67.773438 257.625 65.683594 257.839844 64.53125 259.253906 L 32.3125 298.808594 L 16.0625 282.566406 C 14.8125 281.320312 12.632812 281.320312 11.382812 282.566406 C 10.089844 283.855469 10.089844 285.953125 11.382812 287.242188 L 30.101562 305.945312 C 30.285156 306.132812 30.558594 306.320312 30.933594 306.511719 L 31.203125 306.65625 C 31.191406 306.648438 31.183594 306.644531 31.1875 306.644531 Z M 31.1875 306.644531 " fill-opacity="1" fill-rule="nonzero"/></g></svg>