<svg xmlns="http://www.w3.org/2000/svg" xmlns:xlink="http://www.w3.org/1999/xlink" width="500" zoomAndPan="magnify" viewBox="0 0 375 374.999991" height="500" preserveAspectRatio="xMidYMid meet" version="1.0"><path fill="#ffffff" d="M 67.371094 332.039062 C 67.371094 333.726562 65.992188 335.105469 64.304688 335.105469 L 58.164062 335.105469 C 56.476562 335.105469 55.09375 333.726562 55.09375 332.039062 C 55.09375 330.347656 56.476562 328.96875 58.164062 328.96875 L 64.304688 328.96875 C 65.992188 328.96875 67.371094 330.347656 67.371094 332.039062 Z M 7.339844 303.496094 C 7.339844 303.25 7.308594 303.039062 7.246094 302.792969 C 6.816406 301.011719 6.574219 299.140625 6.449219 297.238281 C 6.355469 295.550781 4.882812 294.199219 3.195312 294.351562 C 1.507812 294.445312 0.21875 295.917969 0.3125 297.605469 C 0.464844 299.847656 0.769531 302.054688 1.261719 304.171875 C 1.601562 305.585938 2.828125 306.566406 4.269531 306.566406 C 4.484375 306.566406 4.730469 306.535156 4.945312 306.476562 C 6.355469 306.167969 7.339844 304.941406 7.339844 303.496094 Z M 45.886719 328.96875 L 39.75 328.96875 C 38.0625 328.96875 36.679688 330.320312 36.679688 332.007812 C 36.648438 333.695312 38.03125 335.074219 39.71875 335.105469 C 39.84375 335.105469 39.996094 335.105469 40.148438 335.105469 L 45.886719 335.105469 C 47.578125 335.105469 48.957031 333.726562 48.957031 332.039062 C 48.957031 330.347656 47.578125 328.96875 45.886719 328.96875 Z M 11.542969 313.132812 C 10.683594 311.753906 8.691406 311.292969 7.308594 312.183594 C 6.632812 312.613281 6.144531 313.285156 5.957031 314.085938 C 5.773438 314.882812 5.925781 315.710938 6.355469 316.386719 C 7.523438 318.257812 8.875 320.066406 10.347656 321.695312 C 10.929688 322.371094 11.757812 322.738281 12.617188 322.738281 C 13.386719 322.738281 14.125 322.460938 14.675781 321.972656 C 15.320312 321.386719 15.6875 320.558594 15.6875 319.699219 C 15.71875 318.933594 15.441406 318.195312 14.921875 317.613281 C 13.660156 316.203125 12.527344 314.699219 11.542969 313.132812 Z M 28.761719 327.003906 C 26.984375 326.359375 25.265625 325.5625 23.636719 324.640625 C 22.226562 323.84375 20.261719 324.394531 19.460938 325.839844 C 18.632812 327.3125 19.15625 329.183594 20.628906 330.011719 C 22.53125 331.085938 24.585938 332.007812 26.675781 332.773438 C 27.011719 332.894531 27.382812 332.957031 27.71875 332.957031 C 29.007812 332.957031 30.175781 332.128906 30.601562 330.933594 C 30.726562 330.566406 30.789062 330.226562 30.789062 329.859375 C 30.789062 328.570312 29.960938 327.433594 28.761719 327.003906 Z M 347.070312 95.5 C 345.382812 95.5 344 96.878906 344 98.566406 L 344 104.703125 C 344 106.390625 345.382812 107.773438 347.070312 107.773438 C 348.757812 107.773438 350.140625 106.390625 350.140625 104.703125 L 350.140625 98.566406 C 350.140625 96.878906 348.757812 95.5 347.070312 95.5 Z M 342.066406 63 C 342.679688 64.78125 343.171875 66.589844 343.507812 68.429688 C 343.753906 69.902344 345.015625 70.976562 346.515625 70.976562 C 346.703125 70.976562 346.882812 70.976562 347.039062 70.949219 C 347.867188 70.792969 348.574219 70.335938 349.035156 69.660156 C 349.496094 69.015625 349.675781 68.1875 349.554688 67.386719 C 349.15625 65.210938 348.605469 63.03125 347.867188 60.976562 C 347.316406 59.410156 345.472656 58.519531 343.9375 59.105469 C 342.710938 59.53125 341.910156 60.667969 341.882812 61.957031 C 341.882812 62.324219 341.945312 62.664062 342.066406 63 Z M 336.632812 53.242188 C 337.21875 53.949219 338.074219 54.378906 339.027344 54.378906 C 339.703125 54.378906 340.378906 54.160156 340.933594 53.703125 C 342.25 52.660156 342.464844 50.722656 341.421875 49.40625 C 340.070312 47.6875 338.535156 46.0625 336.847656 44.558594 C 335.652344 43.484375 333.59375 43.605469 332.519531 44.800781 C 331.96875 45.414062 331.695312 46.214844 331.753906 47.011719 C 331.785156 47.839844 332.152344 48.578125 332.765625 49.128906 C 334.148438 50.386719 335.46875 51.769531 336.632812 53.242188 Z M 350.140625 80.15625 C 350.140625 78.464844 348.757812 77.085938 347.070312 77.085938 C 345.382812 77.085938 344 78.464844 344 80.15625 L 344 86.292969 C 344 87.980469 345.382812 89.359375 347.070312 89.359375 C 348.757812 89.359375 350.140625 87.980469 350.140625 86.292969 Z M 98.464844 138.707031 L 98.464844 163.257812 C 98.464844 168.332031 94.335938 172.460938 89.257812 172.460938 L 58.566406 172.460938 C 53.488281 172.460938 49.355469 168.332031 49.355469 163.257812 L 49.355469 138.707031 C 49.355469 133.628906 53.488281 129.5 58.566406 129.5 L 89.257812 129.5 C 94.335938 129.5 98.464844 133.628906 98.464844 138.707031 Z M 165.988281 138.707031 L 165.988281 163.257812 C 165.988281 168.332031 161.855469 172.460938 156.78125 172.460938 L 126.085938 172.460938 C 121.011719 172.460938 116.878906 168.332031 116.878906 163.257812 L 116.878906 138.707031 C 116.878906 133.628906 121.011719 129.5 126.085938 129.5 L 156.78125 129.5 C 161.855469 129.5 165.988281 133.628906 165.988281 138.707031 Z M 233.507812 138.707031 L 233.507812 163.257812 C 233.507812 168.332031 229.378906 172.460938 224.300781 172.460938 L 193.609375 172.460938 C 188.53125 172.460938 184.402344 168.332031 184.402344 163.257812 L 184.402344 138.707031 C 184.402344 133.628906 188.53125 129.5 193.609375 129.5 L 224.300781 129.5 C 229.378906 129.5 233.507812 133.628906 233.507812 138.707031 Z M 301.03125 163.257812 C 301.03125 168.332031 296.902344 172.460938 291.824219 172.460938 L 261.132812 172.460938 C 256.054688 172.460938 251.925781 168.332031 251.925781 163.257812 L 251.925781 138.707031 C 251.925781 133.628906 256.054688 129.5 261.132812 129.5 L 291.824219 129.5 C 296.902344 129.5 301.03125 133.628906 301.03125 138.707031 Z M 98.464844 193.945312 L 98.464844 218.492188 C 98.464844 223.570312 94.335938 227.699219 89.257812 227.699219 L 58.566406 227.699219 C 53.488281 227.699219 49.355469 223.570312 49.355469 218.492188 L 49.355469 193.945312 C 49.355469 188.867188 53.488281 184.738281 58.566406 184.738281 L 89.257812 184.738281 C 94.335938 184.738281 98.464844 188.867188 98.464844 193.945312 Z M 165.988281 193.945312 L 165.988281 218.492188 C 165.988281 223.570312 161.855469 227.699219 156.78125 227.699219 L 126.085938 227.699219 C 121.011719 227.699219 116.878906 223.570312 116.878906 218.492188 L 116.878906 193.945312 C 116.878906 188.867188 121.011719 184.738281 126.085938 184.738281 L 156.78125 184.738281 C 161.855469 184.738281 165.988281 188.867188 165.988281 193.945312 Z M 233.507812 193.945312 L 233.507812 218.492188 C 233.507812 223.570312 229.378906 227.699219 224.300781 227.699219 L 193.609375 227.699219 C 188.53125 227.699219 184.402344 223.570312 184.402344 218.492188 L 184.402344 193.945312 C 184.402344 188.867188 188.53125 184.738281 193.609375 184.738281 L 224.300781 184.738281 C 229.378906 184.738281 233.507812 188.867188 233.507812 193.945312 Z M 98.464844 249.179688 L 98.464844 273.730469 C 98.464844 278.808594 94.335938 282.9375 89.257812 282.9375 L 58.566406 282.9375 C 53.488281 282.9375 49.355469 278.808594 49.355469 273.730469 L 49.355469 249.179688 C 49.355469 244.105469 53.488281 239.976562 58.566406 239.976562 L 89.257812 239.976562 C 94.335938 239.976562 98.464844 244.105469 98.464844 249.179688 Z M 165.988281 249.179688 L 165.988281 273.730469 C 165.988281 278.808594 161.855469 282.9375 156.78125 282.9375 L 126.085938 282.9375 C 121.011719 282.9375 116.878906 278.808594 116.878906 273.730469 L 116.878906 249.179688 C 116.878906 244.105469 121.011719 239.976562 126.085938 239.976562 L 156.78125 239.976562 C 161.855469 239.976562 165.988281 244.105469 165.988281 249.179688 Z M 285.6875 362.726562 C 256.714844 362.726562 231.449219 346.585938 218.394531 322.832031 L 40.148438 322.832031 C 24.917969 322.832031 12.527344 310.441406 12.527344 295.210938 L 12.527344 74.261719 C 12.527344 59.035156 24.917969 46.644531 40.148438 46.644531 L 40.304688 46.644531 C 41.058594 34.28125 46.296875 22.847656 55.355469 14.199219 C 65.15625 4.847656 78.023438 0.046875 91.582031 0.667969 C 111.515625 1.589844 128.550781 14.796875 135.273438 32.769531 C 137.820312 25.832031 141.894531 19.484375 147.429688 14.199219 C 157.230469 4.847656 170.085938 0.046875 183.65625 0.667969 C 203.59375 1.589844 220.628906 14.796875 227.347656 32.773438 C 229.898438 25.832031 233.972656 19.484375 239.507812 14.199219 C 249.308594 4.847656 262.226562 0.046875 275.730469 0.667969 C 300.777344 1.824219 321.300781 22.347656 322.460938 47.386719 C 322.496094 48.121094 322.46875 48.847656 322.472656 49.574219 C 331.847656 54.21875 337.863281 63.699219 337.863281 74.261719 L 337.863281 229.824219 C 352.953125 243.84375 362.414062 263.835938 362.414062 286.007812 C 362.417969 328.308594 327.996094 362.726562 285.6875 362.726562 Z M 230.546875 46.644531 L 245.953125 46.644531 C 246.742188 39.535156 250.25 33.007812 255.84375 28.394531 C 260.828125 24.285156 267.039062 22.101562 273.460938 22.101562 C 275.269531 22.101562 277.097656 22.273438 278.917969 22.628906 C 289.730469 24.722656 298.402344 33.394531 300.496094 44.203125 C 303.203125 58.175781 295.464844 71.523438 282.082031 75.941406 C 278.730469 77.050781 276.480469 80.015625 276.480469 83.324219 C 276.480469 85.820312 277.640625 88.101562 279.660156 89.585938 C 281.597656 91.007812 284.003906 91.421875 286.273438 90.714844 C 304.875 84.878906 317.234375 67.179688 316.332031 47.671875 C 315.316406 25.765625 297.359375 7.8125 275.449219 6.796875 C 263.558594 6.265625 252.320312 10.453125 243.746094 18.640625 C 235.910156 26.121094 231.292969 35.972656 230.546875 46.644531 Z M 294.472656 45.375 C 292.847656 36.996094 286.125 30.277344 277.75 28.65625 C 271.269531 27.398438 264.71875 29.035156 259.746094 33.128906 C 255.578125 36.570312 252.925781 41.382812 252.171875 46.644531 L 294.660156 46.644531 C 294.601562 46.222656 294.554688 45.796875 294.472656 45.375 Z M 138.472656 46.644531 L 153.878906 46.644531 C 154.667969 39.535156 158.171875 33.007812 163.765625 28.394531 C 168.75 24.285156 174.964844 22.101562 181.382812 22.101562 C 183.195312 22.101562 185.019531 22.273438 186.84375 22.628906 C 197.652344 24.722656 206.324219 33.394531 208.417969 44.203125 C 211.128906 58.175781 203.386719 71.523438 190.007812 75.941406 C 186.65625 77.046875 184.402344 80.015625 184.402344 83.324219 C 184.402344 85.820312 185.5625 88.101562 187.582031 89.585938 C 189.523438 91.007812 191.9375 91.421875 194.199219 90.714844 C 212.800781 84.878906 225.160156 67.179688 224.253906 47.671875 C 223.242188 25.765625 205.285156 7.8125 183.375 6.796875 C 171.535156 6.269531 160.246094 10.457031 151.671875 18.640625 C 143.835938 26.121094 139.214844 35.96875 138.472656 46.644531 Z M 202.394531 45.375 C 200.769531 36.996094 194.050781 30.277344 185.671875 28.65625 C 179.210938 27.40625 172.640625 29.03125 167.671875 33.128906 C 163.5 36.570312 160.847656 41.382812 160.09375 46.644531 L 202.582031 46.644531 C 202.527344 46.222656 202.476562 45.796875 202.394531 45.375 Z M 46.394531 46.644531 L 61.804688 46.644531 C 62.589844 39.535156 66.097656 33.007812 71.6875 28.394531 C 76.671875 24.285156 82.886719 22.101562 89.308594 22.101562 C 91.117188 22.101562 92.945312 22.273438 94.765625 22.628906 C 105.578125 24.722656 114.25 33.394531 116.347656 44.203125 C 119.054688 58.175781 111.3125 71.523438 97.929688 75.941406 C 94.578125 77.046875 92.328125 80.015625 92.328125 83.324219 C 92.328125 85.820312 93.484375 88.101562 95.507812 89.585938 C 97.449219 91.015625 99.863281 91.425781 102.125 90.714844 C 120.722656 84.878906 133.082031 67.179688 132.179688 47.671875 C 131.164062 25.765625 113.207031 7.8125 91.296875 6.796875 C 79.464844 6.269531 68.171875 10.457031 59.59375 18.640625 C 51.761719 26.121094 47.140625 35.96875 46.394531 46.644531 Z M 110.320312 45.375 C 108.695312 36.996094 101.972656 30.277344 93.597656 28.65625 C 87.132812 27.40625 80.566406 29.03125 75.59375 33.128906 C 71.425781 36.570312 68.773438 41.382812 68.019531 46.644531 L 110.507812 46.644531 C 110.449219 46.222656 110.402344 45.796875 110.320312 45.375 Z M 301.03125 193.945312 L 301.03125 210.832031 C 305.261719 211.695312 309.359375 212.921875 313.308594 214.453125 L 313.308594 126.433594 C 313.308594 121.355469 309.179688 117.226562 304.101562 117.226562 L 46.289062 117.226562 C 41.210938 117.226562 37.082031 121.355469 37.082031 126.433594 L 37.082031 286.007812 C 37.082031 291.082031 41.210938 295.210938 46.289062 295.210938 L 209.527344 295.210938 C 209.164062 292.191406 208.957031 289.125 208.957031 286.007812 C 208.957031 284.976562 208.992188 283.957031 209.035156 282.9375 L 193.609375 282.9375 C 188.53125 282.9375 184.402344 278.808594 184.402344 273.730469 L 184.402344 249.183594 C 184.402344 244.105469 188.53125 239.976562 193.609375 239.976562 L 224.300781 239.976562 C 224.316406 239.976562 224.328125 239.980469 224.339844 239.980469 C 231.578125 230.359375 241.027344 222.496094 251.925781 217.132812 L 251.925781 193.945312 C 251.925781 188.867188 256.054688 184.738281 261.132812 184.738281 L 291.824219 184.738281 C 296.902344 184.738281 301.03125 188.867188 301.03125 193.945312 Z M 285.6875 356.585938 C 324.613281 356.585938 356.277344 324.925781 356.277344 286.007812 C 356.277344 247.089844 324.613281 215.425781 285.6875 215.425781 C 246.761719 215.425781 215.09375 247.089844 215.09375 286.007812 C 215.09375 324.925781 246.761719 356.585938 285.6875 356.585938 Z M 352.011719 335.65625 C 352.011719 335.691406 352.011719 335.691406 351.980469 335.71875 C 350.8125 337.285156 349.554688 338.820312 348.296875 340.292969 C 347.773438 340.90625 347.5 341.671875 347.5625 342.5 C 347.621094 343.328125 347.992188 344.066406 348.605469 344.617188 C 349.15625 345.078125 349.894531 345.355469 350.597656 345.355469 C 351.519531 345.355469 352.347656 344.957031 352.933594 344.3125 C 354.34375 342.683594 355.695312 341.027344 356.921875 339.339844 C 357.351562 338.820312 357.535156 338.175781 357.535156 337.53125 C 357.535156 336.546875 357.074219 335.628906 356.308594 335.042969 C 354.988281 334.0625 352.992188 334.367188 352.011719 335.65625 Z M 339.949219 348.636719 C 338.414062 349.957031 336.878906 351.1875 335.34375 352.351562 C 333.964844 353.363281 333.6875 355.296875 334.730469 356.648438 C 335.285156 357.417969 336.207031 357.875 337.1875 357.875 C 337.832031 357.875 338.476562 357.660156 339.027344 357.261719 C 340.6875 356.035156 342.28125 354.714844 343.847656 353.363281 C 343.878906 353.335938 343.90625 353.304688 343.972656 353.273438 C 343.972656 353.273438 343.972656 353.273438 344 353.242188 C 344.644531 352.660156 345.015625 351.832031 345.015625 350.941406 C 345.015625 350.203125 344.738281 349.5 344.277344 348.945312 C 343.203125 347.71875 341.175781 347.566406 339.949219 348.636719 Z M 325.398438 358.734375 C 323.621094 359.71875 321.84375 360.609375 320.121094 361.40625 C 318.585938 362.082031 317.882812 363.921875 318.585938 365.453125 C 319.078125 366.5625 320.183594 367.265625 321.378906 367.265625 C 321.808594 367.265625 322.269531 367.171875 322.667969 366.988281 C 324.574219 366.097656 326.507812 365.148438 328.347656 364.136719 C 329.328125 363.582031 329.945312 362.570312 329.945312 361.433594 C 329.945312 360.914062 329.820312 360.421875 329.546875 359.960938 C 328.777344 358.550781 326.84375 357.96875 325.398438 358.734375 Z M 370.335938 301.257812 C 368.707031 300.921875 367.019531 301.996094 366.679688 303.621094 C 366.253906 305.585938 365.761719 307.515625 365.210938 309.359375 C 364.992188 310.125 365.085938 310.953125 365.457031 311.691406 C 365.855469 312.398438 366.5 312.917969 367.296875 313.164062 C 367.570312 313.257812 367.878906 313.285156 368.15625 313.285156 C 369.503906 313.285156 370.734375 312.367188 371.101562 311.078125 C 371.683594 309.082031 372.207031 307.027344 372.667969 304.910156 C 372.726562 304.695312 372.726562 304.511719 372.726562 304.296875 C 372.761719 302.851562 371.746094 301.566406 370.335938 301.257812 Z M 371.625 282.9375 C 369.9375 282.9375 368.585938 284.289062 368.554688 285.976562 L 368.554688 286.007812 C 368.554688 288 368.492188 289.996094 368.339844 291.929688 C 368.214844 293.617188 369.503906 295.089844 371.191406 295.210938 C 371.253906 295.210938 371.347656 295.210938 371.40625 295.210938 C 373.003906 295.210938 374.355469 293.953125 374.476562 292.359375 C 374.628906 290.269531 374.691406 288.152344 374.691406 286.007812 C 374.691406 284.316406 373.3125 282.9375 371.625 282.9375 Z M 365.148438 318.933594 C 363.640625 318.226562 361.773438 318.933594 361.066406 320.4375 L 361.066406 320.46875 C 360.265625 322.21875 359.378906 323.996094 358.425781 325.714844 C 357.625 327.21875 358.148438 329.09375 359.652344 329.890625 C 360.085938 330.136719 360.605469 330.257812 361.128906 330.257812 C 362.230469 330.257812 363.277344 329.675781 363.828125 328.660156 C 364.871094 326.757812 365.820312 324.824219 366.652344 322.984375 C 366.835938 322.585938 366.925781 322.15625 366.925781 321.726562 C 366.957031 320.53125 366.253906 319.425781 365.148438 318.933594 Z M 309.039062 365.515625 C 307.230469 366.070312 305.296875 366.5625 303.304688 366.988281 C 302.503906 367.175781 301.828125 367.632812 301.367188 368.308594 C 300.9375 369.015625 300.785156 369.8125 300.9375 370.640625 C 301.246094 372.023438 302.503906 373.066406 303.949219 373.066406 C 304.160156 373.066406 304.378906 373.035156 304.59375 372.972656 C 306.679688 372.542969 308.765625 371.992188 310.761719 371.410156 C 312.082031 371.042969 312.96875 369.8125 312.96875 368.460938 C 312.96875 368.15625 312.910156 367.878906 312.847656 367.605469 C 312.390625 366.039062 310.609375 365.058594 309.039062 365.515625 Z M 291.578125 368.648438 C 289.644531 368.800781 287.648438 368.863281 285.6875 368.863281 C 284 368.863281 282.617188 370.242188 282.617188 371.929688 C 282.617188 373.617188 284 375 285.6875 375 C 287.773438 375 289.921875 374.9375 292.039062 374.785156 C 293.605469 374.660156 294.863281 373.34375 294.894531 371.746094 C 294.894531 371.652344 294.863281 371.59375 294.863281 371.5 C 294.742188 369.8125 293.328125 368.554688 291.578125 368.648438 Z M 285.6875 344.3125 C 253.53125 344.3125 227.371094 318.15625 227.371094 286.007812 C 227.371094 253.855469 253.53125 227.699219 285.6875 227.699219 C 317.839844 227.699219 344 253.855469 344 286.007812 C 344 318.15625 317.839844 344.3125 285.6875 344.3125 Z M 285.6875 325.898438 C 287.382812 325.898438 288.753906 327.273438 288.753906 328.96875 L 288.753906 338.019531 C 315.074219 336.476562 336.164062 315.390625 337.707031 289.074219 L 328.65625 289.074219 C 326.957031 289.074219 325.585938 287.699219 325.585938 286.007812 C 325.585938 284.3125 326.957031 282.9375 328.65625 282.9375 L 337.707031 282.9375 C 336.164062 256.625 315.074219 235.535156 288.753906 233.992188 L 288.753906 243.042969 C 288.753906 244.738281 287.382812 246.113281 285.6875 246.113281 C 283.988281 246.113281 282.617188 244.738281 282.617188 243.042969 L 282.617188 233.992188 C 256.296875 235.535156 235.207031 256.625 233.664062 282.9375 L 242.71875 282.9375 C 244.414062 282.9375 245.785156 284.3125 245.785156 286.007812 C 245.785156 287.699219 244.414062 289.074219 242.71875 289.074219 L 233.664062 289.074219 C 235.207031 315.390625 256.296875 336.476562 282.617188 338.019531 L 282.617188 328.96875 C 282.617188 327.273438 283.988281 325.898438 285.6875 325.898438 Z M 31.164062 43.730469 C 31.324219 43.753906 31.484375 43.765625 31.640625 43.765625 C 33.128906 43.765625 34.433594 42.6875 34.667969 41.171875 C 34.820312 40.210938 34.996094 39.257812 35.195312 38.308594 C 35.542969 36.652344 34.480469 35.023438 32.820312 34.675781 C 31.167969 34.324219 29.535156 35.386719 29.1875 37.046875 C 28.964844 38.097656 28.773438 39.15625 28.605469 40.222656 C 28.34375 41.898438 29.488281 43.46875 31.164062 43.730469 Z M 45.199219 11.433594 C 45.203125 11.433594 45.207031 11.4375 45.210938 11.441406 C 45.210938 11.441406 45.210938 11.445312 45.214844 11.445312 C 45.765625 11.996094 46.53125 12.304688 47.332031 12.304688 C 48.078125 12.304688 48.777344 11.996094 49.339844 11.492188 C 49.402344 11.4375 49.480469 11.417969 49.539062 11.359375 C 50.210938 10.660156 50.902344 9.980469 51.613281 9.320312 C 52.855469 8.164062 52.921875 6.222656 51.765625 4.984375 C 50.613281 3.742188 48.664062 3.675781 47.429688 4.832031 C 46.671875 5.535156 45.933594 6.265625 45.210938 7.007812 C 45.203125 7.015625 45.191406 7.015625 45.183594 7.027344 C 45.152344 7.054688 45.152344 7.054688 45.121094 7.085938 C 44.835938 7.386719 44.625 7.734375 44.476562 8.105469 C 44.433594 8.21875 44.4375 8.339844 44.40625 8.460938 C 44.34375 8.703125 44.261719 8.945312 44.261719 9.203125 C 44.261719 9.214844 44.269531 9.226562 44.269531 9.238281 C 44.273438 10.039062 44.578125 10.832031 45.199219 11.433594 Z M 35.023438 28.109375 C 35.421875 28.292969 35.851562 28.382812 36.28125 28.382812 C 37.480469 28.382812 38.582031 27.679688 39.074219 26.605469 C 39.964844 24.734375 40.945312 22.890625 41.988281 21.144531 C 42.878906 19.699219 42.421875 17.796875 40.980469 16.90625 C 39.535156 16.046875 37.601562 16.539062 36.742188 17.949219 C 35.546875 19.914062 34.472656 21.972656 33.519531 24.027344 C 33.183594 24.761719 33.152344 25.589844 33.429688 26.359375 C 33.703125 27.125 34.253906 27.742188 35.023438 28.109375 Z M 301.03125 289.074219 C 302.730469 289.074219 304.101562 287.699219 304.101562 286.007812 C 304.101562 284.3125 302.730469 282.9375 301.03125 282.9375 L 288.753906 282.9375 L 288.753906 261.457031 C 288.753906 259.761719 287.382812 258.386719 285.6875 258.386719 C 283.988281 258.386719 282.617188 259.761719 282.617188 261.457031 L 282.617188 286.007812 C 282.617188 287.699219 283.988281 289.074219 285.6875 289.074219 Z M 301.03125 289.074219 " fill-opacity="1" fill-rule="nonzero"/></svg>