<svg xmlns="http://www.w3.org/2000/svg" xmlns:xlink="http://www.w3.org/1999/xlink" width="500" zoomAndPan="magnify" viewBox="0 0 375 374.999991" height="500" preserveAspectRatio="xMidYMid meet" version="1.0"><path fill="#333" d="M 260.410156 222.890625 C 265.027344 188.753906 309.328125 164.21875 281.363281 133.816406 C 281.363281 133.816406 295.335938 138.769531 294.753906 156.53125 C 294.753906 156.53125 314.109375 133.964844 299.855469 109.527344 C 306.832031 88.015625 308.519531 61.886719 290.683594 44.070312 C 290.683594 44.070312 303.042969 62.074219 297.378906 79.988281 C 297.378906 79.988281 296.5 37.636719 242.667969 30.675781 C 242.667969 30.675781 269.300781 40.148438 277.742188 65.300781 C 277.742188 65.300781 278.34375 56.316406 271.742188 46.152344 C 271.742188 46.152344 291.734375 61.792969 283.875 92.195312 C 283.875 92.195312 279.222656 65.824219 257.390625 53.632812 C 235.578125 41.386719 209.828125 36.585938 199.34375 18.859375 C 199.34375 18.859375 201.667969 33.847656 221.175781 43.449219 C 221.175781 43.449219 179.855469 36.585938 170.832031 0.234375 C 170.832031 0.234375 169.21875 28.613281 202.25 42.304688 C 235.277344 55.941406 242.988281 67.175781 244.449219 77.792969 C 244.449219 77.792969 247.507812 68.1875 237.472656 56.074219 C 237.472656 56.074219 255.949219 70.628906 256.378906 95.214844 C 256.378906 95.214844 261.613281 77.0625 251.296875 63.386719 C 251.296875 63.386719 266.714844 75.148438 263.074219 96.136719 C 263.074219 96.136719 280.820312 99.285156 287.945312 106.882812 C 287.945312 106.882812 259.585938 99.003906 238.484375 105.15625 C 238.484375 105.15625 248.746094 100.207031 259.867188 100.976562 C 259.867188 100.976562 232.523438 94.296875 204.875 121.042969 C 204.875 121.042969 217.835938 98.535156 240.660156 95.742188 C 240.660156 95.742188 248.519531 65.058594 208.664062 50.519531 C 208.664062 50.519531 221.605469 58.042969 227.71875 69.578125 C 227.71875 69.578125 215.058594 53.539062 191.484375 44.839844 C 167.925781 36.117188 165.582031 27.074219 164.289062 23.136719 C 164.289062 23.136719 162.242188 44.070312 192.945312 56.617188 C 192.945312 56.617188 157.871094 52.679688 158.171875 16.027344 C 158.171875 16.027344 142.457031 66.933594 205.308594 76.253906 C 205.308594 76.253906 169.21875 77.980469 157.871094 58.191406 C 157.871094 58.191406 150.464844 83.402344 181.300781 95.308594 C 181.300781 95.308594 140.859375 92.664062 138.816406 48.4375 C 138.816406 48.4375 135.179688 59.878906 137.503906 69.183594 C 137.503906 69.183594 121.9375 43.207031 151.910156 19.347656 C 151.910156 19.347656 110.308594 40.917969 127.75 79.613281 C 127.75 79.613281 111.46875 61.550781 123.679688 38.835938 C 123.679688 38.835938 115.539062 49.019531 115.539062 59.542969 C 115.539062 59.542969 111.019531 30.433594 146.527344 12.109375 C 146.527344 12.109375 88.90625 18.765625 90.953125 76.6875 C 90.953125 76.6875 93.128906 59.394531 102 50.222656 C 102 50.222656 82.363281 90.507812 134.164062 118.738281 C 134.164062 118.738281 73.921875 111.742188 89.339844 49.789062 C 89.339844 49.789062 60.8125 108.890625 128.277344 120.238281 L 128.277344 120.273438 C 128.277344 120.273438 118.992188 129.746094 119.273438 142.652344 C 119.273438 142.652344 122.96875 128.300781 135.367188 121.230469 C 138.292969 121.53125 141.367188 121.773438 144.632812 121.90625 C 144.632812 121.90625 121.203125 110.296875 113.214844 88.203125 C 113.214844 88.203125 132.550781 120.761719 170.683594 113.804688 C 170.683594 113.804688 146.246094 110.726562 131.109375 93.285156 C 131.109375 93.285156 169.070312 120.332031 209.378906 100.976562 C 209.378906 100.976562 198.910156 108.703125 194.109375 122.675781 C 194.109375 122.675781 202.679688 110.296875 211.269531 106.058594 C 211.269531 106.058594 200.355469 116.242188 197.730469 127.777344 C 197.730469 127.777344 228.152344 120.179688 252.742188 134.003906 C 252.742188 134.003906 230.757812 126.144531 212.285156 130.496094 C 212.285156 130.496094 218.941406 138.957031 223.292969 151.109375 L 173.328125 150.714844 C 173.328125 150.714844 145.550781 138.898438 128.953125 151.972656 C 121.65625 157.019531 113.644531 142.839844 105.394531 153.304688 C 102.449219 157.054688 99.203125 180.78125 121.09375 181.496094 C 121.09375 181.496094 118.765625 188.507812 116.007812 189.523438 C 116.007812 189.523438 127.207031 187.796875 126.34375 163.058594 C 126.34375 163.058594 129.851562 159.792969 130.5625 164.558594 C 137.054688 209.066406 177.828125 189.898438 174.996094 161.425781 L 226.03125 160.957031 C 228.019531 171.308594 227.421875 183.125 220.441406 194.359375 C 220.441406 194.359375 229.464844 184.046875 229.746094 174.441406 C 229.746094 174.441406 239.050781 225.535156 192.796875 207.191406 C 192.796875 207.191406 198.179688 213.285156 207.632812 216.210938 C 207.632812 216.210938 192.648438 216.210938 186.964844 202.820312 C 186.964844 202.820312 187.84375 211.128906 191.914062 216.363281 C 195.984375 221.59375 194.671875 232.492188 182.894531 231.910156 C 182.894531 231.910156 199.472656 237.574219 200.65625 251.699219 C 200.65625 251.699219 197.804688 243.296875 188.859375 239.789062 C 188.859375 239.789062 203.5625 250.105469 197.148438 265.671875 C 197.148438 265.671875 199.191406 246.746094 179.835938 239.355469 C 179.835938 239.355469 185.800781 244.308594 189.4375 250.253906 C 189.4375 250.253906 180.136719 236.710938 159.765625 236.429688 C 159.765625 236.429688 176.648438 241.945312 164.417969 264.660156 C 164.417969 264.660156 173.441406 253.667969 171.769531 244.308594 C 171.769531 244.308594 177.433594 264.320312 155.472656 272.59375 C 155.472656 272.59375 167.457031 259.277344 163.613281 247.851562 C 163.613281 247.851562 163.761719 252.9375 162.449219 256.59375 C 162.449219 256.59375 164.570312 244.34375 156.183594 239.414062 C 156.183594 239.414062 166.59375 258.710938 136.847656 256.78125 C 136.847656 256.78125 149.433594 255.878906 153.351562 249.015625 C 153.351562 249.015625 142.738281 250.253906 136.699219 244.777344 C 130.65625 239.355469 118.222656 241.511719 119.085938 252.128906 C 119.085938 252.128906 116.253906 244.0625 122.875 240.371094 C 122.875 240.371094 112.613281 233.015625 117.714844 224.519531 C 122.800781 216.023438 132.910156 219.042969 137.859375 223.84375 C 142.8125 228.648438 157.796875 237.238281 172.257812 227.503906 C 172.257812 227.503906 165.863281 229.507812 158.8125 227.785156 C 158.8125 227.785156 187.394531 229.039062 182.441406 203.53125 C 182.441406 203.53125 179.910156 223.078125 155.320312 218.332031 C 155.320312 218.332031 166.820312 218.273438 172.332031 212.515625 C 172.332031 212.515625 158.003906 217.5625 146.226562 203.71875 C 146.226562 203.71875 147.6875 208.484375 150.519531 211.898438 C 150.519531 211.898438 142.585938 209.066406 141.425781 202.144531 C 141.425781 202.144531 141.125 190.328125 129.496094 192.542969 C 129.496094 192.542969 136.828125 194.359375 135.085938 199.59375 C 135.085938 199.59375 126.4375 193.648438 120.472656 198.882812 C 120.472656 198.882812 122.367188 194.660156 124.542969 194.117188 C 124.542969 194.117188 121.109375 194.941406 117.828125 198.261719 C 114.378906 195.863281 114.695312 192.015625 114.695312 192.015625 C 111.527344 195.992188 115.597656 201.039062 115.597656 201.039062 C 114.507812 202.726562 113.550781 204.734375 112.894531 207.226562 C 112.894531 207.226562 115.371094 204.113281 116.703125 203.25 C 116.703125 203.25 117.285156 216.023438 102.582031 213.378906 C 102.582031 213.378906 105.824219 217.222656 111.546875 216.925781 C 111.546875 216.925781 103.6875 220.636719 99.167969 214.054688 C 99.167969 214.054688 100.441406 225.140625 113.535156 225.777344 C 113.535156 225.777344 116.816406 259.144531 96.578125 268.878906 C 96.578125 268.878906 107.644531 268.785156 112.671875 258.46875 C 112.671875 258.46875 110.382812 276.191406 96.445312 279.34375 C 96.445312 279.34375 102.917969 281.859375 109.96875 277.523438 C 109.96875 277.523438 94.476562 307.535156 134.914062 327.472656 C 134.914062 327.472656 114.976562 304.851562 127.207031 280.882812 C 127.207031 280.882812 114.847656 317.871094 157.328125 328.617188 C 157.328125 328.617188 169.558594 312.335938 157.761719 291.648438 C 157.761719 291.648438 173.757812 308.265625 162.992188 327.039062 C 162.992188 327.039062 201.855469 316.800781 208.25 265.613281 C 208.25 265.613281 208.25 287.992188 202.136719 299.65625 C 202.136719 299.65625 241.976562 276.851562 234.304688 231.011719 C 234.304688 231.011719 240.269531 250.777344 236.628906 265.050781 C 236.628906 265.050781 251.898438 248.003906 243.457031 214.824219 C 235.015625 181.683594 239.386719 159.980469 246.515625 153.753906 C 246.515625 153.753906 239.6875 157.207031 236.910156 165.214844 C 241 133.816406 284.417969 137.511719 273.652344 168.910156 C 265.890625 191.585938 258.085938 195.128906 260.410156 222.890625 " fill-opacity="1" fill-rule="evenodd"/><path fill="#fff" d="M 264.761719 267.339844 C 264.761719 267.339844 267.125 283.152344 197.898438 312.859375 C 197.898438 312.859375 189.34375 322.894531 186.980469 334.675781 L 176.421875 334.675781 L 185.386719 330.15625 C 185.386719 330.15625 186.777344 321.320312 192.570312 313.96875 C 193.492188 313.011719 194.390625 312.054688 195.273438 311.003906 C 196.886719 309.464844 198.742188 308.058594 200.878906 306.953125 C 213.804688 300.238281 266.171875 279.0625 261.257812 263.269531 C 261.257812 263.269531 267.445312 245.546875 279.410156 262.40625 L 286.464844 295.53125 L 296.609375 297.800781 C 296.609375 297.800781 284.007812 341.914062 249.175781 373.949219 C 249.175781 373.949219 282.300781 330.585938 286.578125 301.71875 C 286.578125 301.71875 272.039062 323.964844 244.695312 340.863281 C 244.695312 340.863281 270.332031 318.394531 278.660156 302.152344 C 278.660156 302.152344 265.417969 317.324219 253.453125 322.238281 C 253.453125 322.238281 270.539062 307.289062 278.230469 296.148438 C 278.230469 296.148438 263.28125 309.652344 254.316406 313.5 C 254.316406 313.5 266.488281 301.53125 269.902344 297.03125 C 269.902344 297.03125 259.492188 306.523438 250.300781 311.230469 C 250.300781 311.230469 264.519531 298.664062 271.664062 289.003906 C 271.664062 289.003906 255.96875 300.765625 244.113281 306.953125 C 244.113281 306.953125 258.425781 294.667969 264.839844 288.046875 C 264.839844 288.046875 248.914062 299.039062 238.222656 303.222656 C 238.222656 303.222656 265.683594 284.972656 274.667969 269.554688 C 274.667969 269.554688 275.660156 262.839844 269.753906 260.71875 C 263.84375 258.5625 264.761719 267.339844 264.761719 267.339844 Z M 172.671875 342.964844 L 190.941406 343.507812 C 190.941406 343.507812 217.125 329.964844 232.070312 330.15625 C 232.070312 330.15625 215.847656 328.035156 201.742188 334.429688 C 201.742188 334.429688 218.625 320.890625 229.839844 318.207031 C 229.839844 318.207031 206.976562 322.371094 193.714844 334.335938 C 193.714844 334.335938 201.835938 311.324219 236.027344 310.796875 C 236.027344 310.796875 248.632812 350.65625 229.839844 375.242188 C 229.839844 375.242188 208.15625 366.109375 187.957031 348.742188 L 175.128906 349.605469 C 175.128906 349.605469 160.179688 369.28125 138.59375 370.105469 C 138.59375 370.105469 131.464844 348.253906 132.757812 330.585938 C 132.851562 330.640625 152.285156 333.082031 162.148438 337.601562 C 162.148438 337.601562 154.835938 336.738281 151.683594 337.113281 C 151.683594 337.113281 168.152344 339.511719 172.671875 342.964844 " fill-opacity="1" fill-rule="evenodd"/></svg>
